<svg width="228" height="214" viewBox="0 0 228 214" fill="none" xmlns="http://www.w3.org/2000/svg">
<rect opacity="0.5" width="228" height="214" rx="19" fill="#852B2B"/>
<path d="M142.117 65.595C142.117 67.2502 140.813 68.5654 139.215 68.5654C137.638 68.5654 136.334 67.2505 136.334 65.595C136.334 60.5606 135.45 55.5711 133.915 51.0812C130.95 42.2373 125.545 35.2071 119.509 32.8265C118.058 32.2364 116.586 31.9417 115.093 31.9417C112.716 31.9417 110.361 32.713 108.132 34.096C108.132 34.096 108.132 34.096 108.111 34.1185C103.337 37.1347 99.1523 43.031 96.5653 50.197C94.862 54.9367 93.8525 60.2202 93.8525 65.595C93.8525 67.2502 92.5698 68.5654 90.9714 68.5654C89.3942 68.5654 88.0903 67.2505 88.0903 65.595C88.0903 60.4246 88.9736 55.0724 90.5929 50.0609C94.7777 36.9306 103.926 26 115.093 26C116.607 26 118.079 26.2043 119.509 26.5901C123.757 27.7007 127.606 30.3996 130.887 34.096C130.887 34.1185 130.908 34.1185 130.908 34.1185C134.904 38.6539 138.037 44.6865 139.972 51.1946C141.36 55.9118 142.117 60.8098 142.117 65.595Z" fill="#FB3434"/>
<path d="M169.793 164.06L74.9462 170.477L75.7874 135.441L76.3973 110.133L76.4394 108.568L77.8064 50.8774V50.4013L77.8273 49.7663L90.5927 50.0609L96.5653 50.197L99.3412 50.2424L105.314 50.4013L133.915 51.0812L139.972 51.1946L142.832 51.2627L148.847 51.4216L156.628 51.6027L157.175 51.6259L158.563 51.6482L164.009 51.7616L164.325 57.8388L164.409 59.6078L169.793 164.06Z" fill="#FB3434"/>
<path d="M78.7316 50.2878L76.0607 135.169L74.9462 170.477V170.5L66.6604 167.28L61.8864 165.42L54 162.336L54.3575 157.506V157.302L54.5468 154.808L62.0966 50.6505L70.8452 51.2627L77.8064 50.4013L78.7316 50.2878Z" fill="#FB3434"/>
<g opacity="0.5">
<path d="M55.1898 161.992L74.5439 169.598L67.6118 159.209L55.1898 161.992Z" fill="#FB3434"/>
</g>
<g opacity="0.1">
<path d="M78.2262 50.6353L77.9624 50.8627L71.0928 52.2264L67.6118 159.209L74.5439 169.598L78.2262 50.6353Z" fill="#FB3434"/>
</g>
<path d="M99.793 71.2259C102.023 71.2259 103.831 69.3644 103.831 67.0682C103.831 64.7719 102.023 62.9104 99.793 62.9104C97.5629 62.9104 95.755 64.7719 95.755 67.0682C95.755 69.3644 97.5629 71.2259 99.793 71.2259Z" fill="#E5E8F5"/>
<path d="M148.04 71.2259C150.271 71.2259 152.078 69.3644 152.078 67.0682C152.078 64.7719 150.271 62.9104 148.04 62.9104C145.81 62.9104 144.003 64.7719 144.003 67.0682C144.003 69.3644 145.81 71.2259 148.04 71.2259Z" fill="#E5E8F5"/>
<path d="M150.929 65.595C150.929 67.2502 149.625 68.5654 148.048 68.5654C146.449 68.5654 145.166 67.2505 145.166 65.595C145.166 65.1183 145.166 64.6653 145.145 64.1886V64.0297C144.977 59.6078 144.157 55.2539 142.832 51.2627C140.288 43.6202 135.934 37.271 130.908 34.1185C130.908 34.1185 130.887 34.1185 130.887 34.096C128.658 32.713 126.302 31.9417 123.926 31.9417C122.433 31.9417 120.961 32.2364 119.509 32.8265C113.621 35.1396 108.321 41.8741 105.314 50.4013C103.8 54.6643 102.853 59.3815 102.706 64.1886V64.2115C102.685 64.6876 102.685 65.1183 102.685 65.595C102.685 67.2502 101.381 68.5654 99.7828 68.5654C98.2056 68.5654 96.9017 67.2505 96.9017 65.595C96.9017 65.1183 96.9017 64.6199 96.9436 64.1206C97.0697 59.4723 97.9109 54.7324 99.341 50.2424C101.276 44.0969 104.304 38.4276 108.111 34.1185C108.131 34.096 108.131 34.096 108.131 34.096C111.412 30.3999 115.261 27.7007 119.509 26.5901C120.939 26.2043 122.412 26 123.926 26C128.763 26 133.2 28.0639 137.028 31.4427C137.091 31.4882 137.154 31.5336 137.217 31.6016C138.247 32.4858 139.215 33.5061 140.14 34.6178C140.203 34.6852 140.266 34.7535 140.308 34.8216C144.073 39.3115 147.038 45.1626 148.847 51.4216C149.52 53.7573 150.045 56.1836 150.403 58.6101C150.676 60.4472 150.823 62.2836 150.887 64.1206C150.929 64.6199 150.929 65.1183 150.929 65.595Z" fill="#FB3434"/>
<path opacity="0.05" d="M169.793 164.06L74.9462 170.477V170.5L66.6604 167.28L61.8864 165.42L54 162.336L54.3575 157.506L54.4627 157.415L68.1323 143.333L75.5982 135.622L75.7874 135.441L76.0607 135.169L145.145 64.0297L150.403 58.6101L157.175 51.6259L157.196 51.6027L158.563 51.6259L164.009 51.7616L164.325 57.8388L164.409 59.6078L169.793 164.06Z" fill="#FB3434"/>
<ellipse cx="158.058" cy="141.472" rx="26" ry="24.5" fill="#FB3434"/>
<path d="M149.879 131.328L170.121 150.672M150.328 151.121L169.672 130.879" stroke="#1E1E1E" stroke-width="4" stroke-linecap="round" stroke-linejoin="round"/>
<path d="M149.879 131.328L170.121 150.672M150.328 151.121L169.672 130.879" stroke="white" stroke-width="4" stroke-linecap="round" stroke-linejoin="round"/>
</svg>
