<svg width="467" height="157" viewBox="0 0 467 157" fill="none" xmlns="http://www.w3.org/2000/svg">
<mask id="path-1-outside-1_34_41" maskUnits="userSpaceOnUse" x="-4" y="-4" width="475" height="165" fill="black">
<rect fill="white" x="-4" y="-4" width="475" height="165"/>
<path d="M6.8 2.57H65.11C69.4167 2.57 71.57 4.72333 71.57 9.02999C71.57 13.2233 69.4167 15.32 65.11 15.32H14.96V51.7H58.48C62.6733 51.7 64.77 53.8533 64.77 58.16C64.77 62.3533 62.6733 64.45 58.48 64.45H14.96V111.71C14.96 115.903 12.75 118 8.33 118H6.8C2.38 118 0.170001 115.847 0.170001 111.54V9.02999C0.170001 4.72333 2.38 2.57 6.8 2.57ZM101.049 34.19H102.069C106.376 34.19 108.529 36.2867 108.529 40.48V111.54C108.529 115.847 106.376 118 102.069 118H101.049C96.7424 118 94.5891 115.847 94.5891 111.54V40.48C94.5891 36.2867 96.7424 34.19 101.049 34.19ZM92.2091 10.22C92.2091 7.61333 93.1157 5.40333 94.9291 3.58999C96.7424 1.66332 98.8957 0.69999 101.389 0.69999C103.996 0.69999 106.206 1.66332 108.019 3.58999C109.946 5.40333 110.909 7.61333 110.909 10.22C110.909 12.7133 110.002 14.9233 108.189 16.85C106.376 18.6633 104.166 19.57 101.559 19.57C98.9524 19.57 96.7424 18.6633 94.9291 16.85C93.1157 15.0367 92.2091 12.8267 92.2091 10.22ZM149.961 11.58H151.151C155.458 11.58 157.611 13.6767 157.611 17.87V34.7H181.071C185.491 34.7 187.701 36.6267 187.701 40.48C187.701 44.3333 185.491 46.26 181.071 46.26H157.611V89.1C157.611 96.24 158.971 101.283 161.691 104.23C164.525 107.063 168.605 108.48 173.931 108.48C179.371 108.48 183.395 107.177 186.001 104.57C188.835 105.477 190.251 107.29 190.251 110.01C190.251 112.73 188.381 114.997 184.641 116.81C180.901 118.51 176.425 119.36 171.211 119.36C152.738 119.36 143.501 109.273 143.501 89.1V46.26H135.171C132.678 46.26 130.865 45.8633 129.731 45.07C128.598 44.2767 128.031 42.7467 128.031 40.48C128.031 36.6267 130.411 34.7 135.171 34.7H143.501V17.87C143.501 13.6767 145.655 11.58 149.961 11.58ZM210.714 34.19H211.904C216.21 34.19 218.364 36.1733 218.364 40.14V46.77C220.744 42.8033 224.314 39.46 229.074 36.74C233.834 34.02 238.99 32.66 244.544 32.66C255.084 32.66 263.584 36.23 270.044 43.37C276.617 50.3967 279.904 61.1633 279.904 75.67C279.904 90.0633 276.05 100.943 268.344 108.31C260.75 115.677 251.4 119.36 240.294 119.36C232.7 119.36 225.39 117.433 218.364 113.58V150.13C218.364 154.323 216.21 156.42 211.904 156.42H210.714C206.407 156.42 204.254 154.323 204.254 150.13V40.48C204.254 36.2867 206.407 34.19 210.714 34.19ZM265.794 75.5C265.794 64.7333 263.527 56.9133 258.994 52.04C254.46 47.0533 248.34 44.56 240.634 44.56C232.927 44.56 227.26 47.96 223.634 54.76C220.12 61.56 218.364 70.4 218.364 81.28V102.53C219.497 103.323 222.274 104.4 226.694 105.76C231.227 107.007 235.76 107.63 240.294 107.63C247.887 107.63 254.007 104.967 258.654 99.64C263.414 94.3133 265.794 86.2667 265.794 75.5ZM296.107 76.35C296.107 62.1833 300.073 51.36 308.007 43.88C315.94 36.4 325.063 32.66 335.377 32.66C345.69 32.66 353.85 35.3233 359.857 40.65C365.863 45.8633 368.867 52.38 368.867 60.2C368.867 68.02 365.75 74.14 359.517 78.56C353.397 82.8667 345.463 85.02 335.717 85.02C325.97 85.02 317.187 83.49 309.367 80.43C309.367 88.7033 312.2 95.39 317.867 100.49C323.533 105.477 330.447 107.97 338.607 107.97C351.3 107.97 359.233 104.06 362.407 96.24C364.333 96.24 365.977 96.8067 367.337 97.94C368.697 98.96 369.377 100.49 369.377 102.53C369.377 106.497 366.43 110.293 360.537 113.92C354.757 117.547 347.39 119.36 338.437 119.36C326.423 119.36 316.337 115.733 308.177 108.48C300.13 101.227 296.107 90.5167 296.107 76.35ZM355.947 59.69C355.947 55.27 354.02 51.53 350.167 48.47C346.427 45.41 341.213 43.88 334.527 43.88C327.953 43.88 322.173 46.5433 317.187 51.87C312.2 57.1967 309.65 63.2033 309.537 69.89C317.697 72.61 325.8 73.97 333.847 73.97C348.58 73.97 355.947 69.21 355.947 59.69ZM395.667 44.05C403.714 36.4567 413.574 32.66 425.247 32.66C436.92 32.66 446.78 36.4567 454.827 44.05C462.874 51.6433 466.897 62.3533 466.897 76.18C466.897 90.0067 462.874 100.66 454.827 108.14C446.78 115.62 436.92 119.36 425.247 119.36C413.574 119.36 403.714 115.62 395.667 108.14C387.62 100.66 383.597 90.0067 383.597 76.18C383.597 62.3533 387.62 51.6433 395.667 44.05ZM444.797 52.72C439.81 47.1667 433.294 44.39 425.247 44.39C417.2 44.39 410.627 47.1667 405.527 52.72C400.54 58.16 398.047 65.98 398.047 76.18C398.047 86.2667 400.54 94.0867 405.527 99.64C410.627 105.08 417.2 107.8 425.247 107.8C433.294 107.8 439.81 105.08 444.797 99.64C449.897 94.0867 452.447 86.2667 452.447 76.18C452.447 65.98 449.897 58.16 444.797 52.72Z"/>
</mask>
<path d="M6.8 2.57H65.11C69.4167 2.57 71.57 4.72333 71.57 9.02999C71.57 13.2233 69.4167 15.32 65.11 15.32H14.96V51.7H58.48C62.6733 51.7 64.77 53.8533 64.77 58.16C64.77 62.3533 62.6733 64.45 58.48 64.45H14.96V111.71C14.96 115.903 12.75 118 8.33 118H6.8C2.38 118 0.170001 115.847 0.170001 111.54V9.02999C0.170001 4.72333 2.38 2.57 6.8 2.57ZM101.049 34.19H102.069C106.376 34.19 108.529 36.2867 108.529 40.48V111.54C108.529 115.847 106.376 118 102.069 118H101.049C96.7424 118 94.5891 115.847 94.5891 111.54V40.48C94.5891 36.2867 96.7424 34.19 101.049 34.19ZM92.2091 10.22C92.2091 7.61333 93.1157 5.40333 94.9291 3.58999C96.7424 1.66332 98.8957 0.69999 101.389 0.69999C103.996 0.69999 106.206 1.66332 108.019 3.58999C109.946 5.40333 110.909 7.61333 110.909 10.22C110.909 12.7133 110.002 14.9233 108.189 16.85C106.376 18.6633 104.166 19.57 101.559 19.57C98.9524 19.57 96.7424 18.6633 94.9291 16.85C93.1157 15.0367 92.2091 12.8267 92.2091 10.22ZM149.961 11.58H151.151C155.458 11.58 157.611 13.6767 157.611 17.87V34.7H181.071C185.491 34.7 187.701 36.6267 187.701 40.48C187.701 44.3333 185.491 46.26 181.071 46.26H157.611V89.1C157.611 96.24 158.971 101.283 161.691 104.23C164.525 107.063 168.605 108.48 173.931 108.48C179.371 108.48 183.395 107.177 186.001 104.57C188.835 105.477 190.251 107.29 190.251 110.01C190.251 112.73 188.381 114.997 184.641 116.81C180.901 118.51 176.425 119.36 171.211 119.36C152.738 119.36 143.501 109.273 143.501 89.1V46.26H135.171C132.678 46.26 130.865 45.8633 129.731 45.07C128.598 44.2767 128.031 42.7467 128.031 40.48C128.031 36.6267 130.411 34.7 135.171 34.7H143.501V17.87C143.501 13.6767 145.655 11.58 149.961 11.58ZM210.714 34.19H211.904C216.21 34.19 218.364 36.1733 218.364 40.14V46.77C220.744 42.8033 224.314 39.46 229.074 36.74C233.834 34.02 238.99 32.66 244.544 32.66C255.084 32.66 263.584 36.23 270.044 43.37C276.617 50.3967 279.904 61.1633 279.904 75.67C279.904 90.0633 276.05 100.943 268.344 108.31C260.75 115.677 251.4 119.36 240.294 119.36C232.7 119.36 225.39 117.433 218.364 113.58V150.13C218.364 154.323 216.21 156.42 211.904 156.42H210.714C206.407 156.42 204.254 154.323 204.254 150.13V40.48C204.254 36.2867 206.407 34.19 210.714 34.19ZM265.794 75.5C265.794 64.7333 263.527 56.9133 258.994 52.04C254.46 47.0533 248.34 44.56 240.634 44.56C232.927 44.56 227.26 47.96 223.634 54.76C220.12 61.56 218.364 70.4 218.364 81.28V102.53C219.497 103.323 222.274 104.4 226.694 105.76C231.227 107.007 235.76 107.63 240.294 107.63C247.887 107.63 254.007 104.967 258.654 99.64C263.414 94.3133 265.794 86.2667 265.794 75.5ZM296.107 76.35C296.107 62.1833 300.073 51.36 308.007 43.88C315.94 36.4 325.063 32.66 335.377 32.66C345.69 32.66 353.85 35.3233 359.857 40.65C365.863 45.8633 368.867 52.38 368.867 60.2C368.867 68.02 365.75 74.14 359.517 78.56C353.397 82.8667 345.463 85.02 335.717 85.02C325.97 85.02 317.187 83.49 309.367 80.43C309.367 88.7033 312.2 95.39 317.867 100.49C323.533 105.477 330.447 107.97 338.607 107.97C351.3 107.97 359.233 104.06 362.407 96.24C364.333 96.24 365.977 96.8067 367.337 97.94C368.697 98.96 369.377 100.49 369.377 102.53C369.377 106.497 366.43 110.293 360.537 113.92C354.757 117.547 347.39 119.36 338.437 119.36C326.423 119.36 316.337 115.733 308.177 108.48C300.13 101.227 296.107 90.5167 296.107 76.35ZM355.947 59.69C355.947 55.27 354.02 51.53 350.167 48.47C346.427 45.41 341.213 43.88 334.527 43.88C327.953 43.88 322.173 46.5433 317.187 51.87C312.2 57.1967 309.65 63.2033 309.537 69.89C317.697 72.61 325.8 73.97 333.847 73.97C348.58 73.97 355.947 69.21 355.947 59.69ZM395.667 44.05C403.714 36.4567 413.574 32.66 425.247 32.66C436.92 32.66 446.78 36.4567 454.827 44.05C462.874 51.6433 466.897 62.3533 466.897 76.18C466.897 90.0067 462.874 100.66 454.827 108.14C446.78 115.62 436.92 119.36 425.247 119.36C413.574 119.36 403.714 115.62 395.667 108.14C387.62 100.66 383.597 90.0067 383.597 76.18C383.597 62.3533 387.62 51.6433 395.667 44.05ZM444.797 52.72C439.81 47.1667 433.294 44.39 425.247 44.39C417.2 44.39 410.627 47.1667 405.527 52.72C400.54 58.16 398.047 65.98 398.047 76.18C398.047 86.2667 400.54 94.0867 405.527 99.64C410.627 105.08 417.2 107.8 425.247 107.8C433.294 107.8 439.81 105.08 444.797 99.64C449.897 94.0867 452.447 86.2667 452.447 76.18C452.447 65.98 449.897 58.16 444.797 52.72Z" fill="#218950"/>
<path d="M14.96 15.32V11.32H10.96V15.32H14.96ZM14.96 51.7H10.96V55.7H14.96V51.7ZM14.96 64.45V60.45H10.96V64.45H14.96ZM6.8 6.57H65.11V-1.43H6.8V6.57ZM65.11 6.57C66.6468 6.57 67.0646 6.95148 67.1266 7.01342C67.1885 7.07537 67.57 7.49324 67.57 9.02999H75.57C75.57 6.26008 74.8748 3.44795 72.7834 1.35657C70.692 -0.734817 67.8799 -1.43 65.11 -1.43V6.57ZM67.57 9.02999C67.57 10.4826 67.2035 10.8437 67.1645 10.8816C67.1058 10.9388 66.6731 11.32 65.11 11.32V19.32C67.8536 19.32 70.6509 18.6529 72.7455 16.6134C74.8599 14.5546 75.57 11.7707 75.57 9.02999H67.57ZM65.11 11.32H14.96V19.32H65.11V11.32ZM10.96 15.32V51.7H18.96V15.32H10.96ZM14.96 55.7H58.48V47.7H14.96V55.7ZM58.48 55.7C59.9326 55.7 60.2937 56.0665 60.3316 56.1055C60.3888 56.1642 60.77 56.5969 60.77 58.16H68.77C68.77 55.4164 68.1029 52.6191 66.0634 50.5245C64.0046 48.4101 61.2207 47.7 58.48 47.7V55.7ZM60.77 58.16C60.77 59.6401 60.4027 60.0155 60.3691 60.0491C60.3355 60.0827 59.9601 60.45 58.48 60.45V68.45C61.1933 68.45 63.9629 67.769 66.0259 65.7059C68.089 63.6429 68.77 60.8732 68.77 58.16H60.77ZM58.48 60.45H14.96V68.45H58.48V60.45ZM10.96 64.45V111.71H18.96V64.45H10.96ZM10.96 111.71C10.96 113.135 10.5949 113.482 10.5495 113.526C10.4645 113.606 9.97442 114 8.33 114V122C11.1056 122 13.9305 121.345 16.0555 119.329C18.2201 117.276 18.96 114.479 18.96 111.71H10.96ZM8.33 114H6.8V122H8.33V114ZM6.8 114C5.18089 114 4.70608 113.605 4.61896 113.52C4.5511 113.454 4.17 113.05 4.17 111.54H-3.83C-3.83 114.337 -3.1061 117.163 -0.963959 119.25C1.15892 121.318 3.99911 122 6.8 122V114ZM4.17 111.54V9.02999H-3.83V111.54H4.17ZM4.17 9.02999C4.17 7.51998 4.5511 7.11604 4.61896 7.04991C4.70608 6.96502 5.18089 6.57 6.8 6.57V-1.43C3.99911 -1.43 1.15892 -0.748365 -0.963958 1.32008C-3.1061 3.40729 -3.83 6.23334 -3.83 9.02999H4.17ZM94.9291 3.58999L97.7575 6.41842L97.8003 6.37557L97.8419 6.33145L94.9291 3.58999ZM108.019 3.58999L105.106 6.33145L105.189 6.41972L105.278 6.50279L108.019 3.58999ZM108.189 16.85L111.017 19.6784L111.06 19.6356L111.102 19.5915L108.189 16.85ZM94.9291 16.85L97.7575 14.0216L97.7575 14.0216L94.9291 16.85ZM101.049 38.19H102.069V30.19H101.049V38.19ZM102.069 38.19C103.632 38.19 104.065 38.5712 104.124 38.6284C104.163 38.6663 104.529 39.0274 104.529 40.48H112.529C112.529 37.7393 111.819 34.9554 109.705 32.8966C107.61 30.8571 104.813 30.19 102.069 30.19V38.19ZM104.529 40.48V111.54H112.529V40.48H104.529ZM104.529 111.54C104.529 113.077 104.148 113.495 104.086 113.557C104.024 113.619 103.606 114 102.069 114V122C104.839 122 107.651 121.305 109.742 119.213C111.834 117.122 112.529 114.31 112.529 111.54H104.529ZM102.069 114H101.049V122H102.069V114ZM101.049 114C99.5123 114 99.0944 113.619 99.0325 113.557C98.9705 113.495 98.5891 113.077 98.5891 111.54H90.5891C90.5891 114.31 91.2843 117.122 93.3756 119.213C95.467 121.305 98.2792 122 101.049 122V114ZM98.5891 111.54V40.48H90.5891V111.54H98.5891ZM98.5891 40.48C98.5891 39.0274 98.9556 38.6663 98.9945 38.6284C99.0533 38.5712 99.4859 38.19 101.049 38.19V30.19C98.3055 30.19 95.5082 30.8571 93.4136 32.8966C91.2992 34.9554 90.5891 37.7393 90.5891 40.48H98.5891ZM96.2091 10.22C96.2091 8.65459 96.7081 7.46786 97.7575 6.41842L92.1006 0.761569C89.5234 3.3388 88.2091 6.57207 88.2091 10.22H96.2091ZM97.8419 6.33145C98.9511 5.1529 100.072 4.69999 101.389 4.69999V-3.30001C97.7194 -3.30001 94.5337 -1.82625 92.0163 0.848537L97.8419 6.33145ZM101.389 4.69999C102.874 4.69999 104.036 5.19426 105.106 6.33145L110.932 0.848536C108.375 -1.86761 105.117 -3.30001 101.389 -3.30001V4.69999ZM105.278 6.50279C106.415 7.57309 106.909 8.73488 106.909 10.22H114.909C114.909 6.49178 113.477 3.23357 110.761 0.677197L105.278 6.50279ZM106.909 10.22C106.909 11.6279 106.438 12.874 105.276 14.1085L111.102 19.5915C113.567 16.9727 114.909 13.7988 114.909 10.22H106.909ZM105.361 14.0216C104.311 15.071 103.124 15.57 101.559 15.57V23.57C105.207 23.57 108.44 22.2556 111.017 19.6784L105.361 14.0216ZM101.559 15.57C99.9937 15.57 98.8069 15.071 97.7575 14.0216L92.1006 19.6784C94.6779 22.2557 97.9111 23.57 101.559 23.57V15.57ZM97.7575 14.0216C96.7081 12.9721 96.2091 11.7854 96.2091 10.22H88.2091C88.2091 13.8679 89.5234 17.1012 92.1006 19.6784L97.7575 14.0216ZM157.611 34.7H153.611V38.7H157.611V34.7ZM157.611 46.26V42.26H153.611V46.26H157.611ZM161.691 104.23L158.752 106.943L158.806 107.002L158.863 107.058L161.691 104.23ZM186.001 104.57L187.22 100.76L184.897 100.017L183.173 101.742L186.001 104.57ZM184.641 116.81L186.296 120.451L186.342 120.431L186.386 120.409L184.641 116.81ZM143.501 46.26H147.501V42.26H143.501V46.26ZM129.731 45.07L127.437 48.3469L127.437 48.3469L129.731 45.07ZM143.501 34.7V38.7H147.501V34.7H143.501ZM149.961 15.58H151.151V7.57999H149.961V15.58ZM151.151 15.58C152.714 15.58 153.147 15.9612 153.206 16.0184C153.245 16.0563 153.611 16.4174 153.611 17.87H161.611C161.611 15.1293 160.901 12.3454 158.787 10.2866C156.692 8.24712 153.895 7.57999 151.151 7.57999V15.58ZM153.611 17.87V34.7H161.611V17.87H153.611ZM157.611 38.7H181.071V30.7H157.611V38.7ZM181.071 38.7C182.789 38.7 183.331 39.0862 183.415 39.1601C183.447 39.1876 183.495 39.2339 183.551 39.3798C183.616 39.5496 183.701 39.8895 183.701 40.48H191.701C191.701 37.7831 190.902 35.0742 188.672 33.1299C186.547 31.2771 183.773 30.7 181.071 30.7V38.7ZM183.701 40.48C183.701 41.0704 183.616 41.4104 183.551 41.5802C183.495 41.7261 183.447 41.7724 183.415 41.7999C183.33 41.8738 182.789 42.26 181.071 42.26V50.26C183.773 50.26 186.547 49.6829 188.672 47.8301C190.902 45.8858 191.701 43.1769 191.701 40.48H183.701ZM181.071 42.26H157.611V50.26H181.071V42.26ZM153.611 46.26V89.1H161.611V46.26H153.611ZM153.611 89.1C153.611 96.5334 154.986 102.863 158.752 106.943L164.63 101.517C162.957 99.7039 161.611 95.9466 161.611 89.1H153.611ZM158.863 107.058C162.668 110.864 167.905 112.48 173.931 112.48V104.48C169.304 104.48 166.381 103.263 164.52 101.402L158.863 107.058ZM173.931 112.48C179.93 112.48 185.18 111.048 188.83 107.398L183.173 101.742C181.609 103.305 178.812 104.48 173.931 104.48V112.48ZM184.782 108.38C185.656 108.659 185.949 108.961 186.037 109.073C186.1 109.154 186.251 109.374 186.251 110.01H194.251C194.251 107.926 193.694 105.88 192.341 104.147C191.012 102.446 189.18 101.387 187.22 100.76L184.782 108.38ZM186.251 110.01C186.251 110.466 186.068 111.673 182.896 113.211L186.386 120.409C190.694 118.321 194.251 114.994 194.251 110.01H186.251ZM182.986 113.169C179.886 114.578 176.002 115.36 171.211 115.36V123.36C176.847 123.36 181.917 122.442 186.296 120.451L182.986 113.169ZM171.211 115.36C162.686 115.36 157.001 113.049 153.379 109.094C149.696 105.072 147.501 98.6531 147.501 89.1H139.501C139.501 99.7203 141.925 108.432 147.479 114.496C153.093 120.628 161.263 123.36 171.211 123.36V115.36ZM147.501 89.1V46.26H139.501V89.1H147.501ZM143.501 42.26H135.171V50.26H143.501V42.26ZM135.171 42.26C132.924 42.26 132.133 41.8687 132.025 41.7931L127.437 48.3469C129.596 49.858 132.432 50.26 135.171 50.26V42.26ZM132.025 41.7931C132.238 41.9418 132.26 42.0807 132.207 41.9382C132.139 41.7541 132.031 41.3102 132.031 40.48H124.031C124.031 43.2097 124.693 46.426 127.437 48.3469L132.025 41.7931ZM132.031 40.48C132.031 39.4199 132.317 39.2668 132.333 39.254C132.51 39.1103 133.227 38.7 135.171 38.7V30.7C132.356 30.7 129.502 31.253 127.299 33.036C124.935 34.9499 124.031 37.6868 124.031 40.48H132.031ZM135.171 38.7H143.501V30.7H135.171V38.7ZM147.501 34.7V17.87H139.501V34.7H147.501ZM147.501 17.87C147.501 16.4174 147.868 16.0563 147.907 16.0184C147.965 15.9612 148.398 15.58 149.961 15.58V7.57999C147.218 7.57999 144.42 8.24712 142.326 10.2866C140.211 12.3454 139.501 15.1293 139.501 17.87H147.501ZM218.364 46.77H214.364V61.2113L221.794 48.828L218.364 46.77ZM229.074 36.74L231.058 40.213L231.058 40.213L229.074 36.74ZM270.044 43.37L267.078 46.0537L267.1 46.0783L267.123 46.1026L270.044 43.37ZM268.344 108.31L265.58 105.419L265.569 105.429L265.558 105.439L268.344 108.31ZM218.364 113.58L220.287 110.073L214.364 106.824V113.58H218.364ZM258.994 52.04L256.034 54.7307L256.049 54.7476L256.065 54.7644L258.994 52.04ZM223.634 54.76L220.104 52.8776L220.092 52.9007L220.08 52.9239L223.634 54.76ZM218.364 102.53H214.364V104.613L216.07 105.807L218.364 102.53ZM226.694 105.76L225.517 109.583L225.575 109.601L225.633 109.617L226.694 105.76ZM258.654 99.64L255.671 96.9747L255.655 96.9925L255.639 97.0105L258.654 99.64ZM210.714 38.19H211.904V30.19H210.714V38.19ZM211.904 38.19C213.518 38.19 213.983 38.5687 214.039 38.6197C214.067 38.646 214.13 38.7082 214.199 38.8981C214.276 39.1105 214.364 39.4996 214.364 40.14H222.364C222.364 37.4517 221.619 34.7249 219.459 32.7353C217.361 30.803 214.596 30.19 211.904 30.19V38.19ZM214.364 40.14V46.77H222.364V40.14H214.364ZM221.794 48.828C223.761 45.5492 226.783 42.656 231.058 40.213L227.089 33.267C221.844 36.264 217.726 40.0574 214.934 44.712L221.794 48.828ZM231.058 40.213C235.206 37.843 239.677 36.66 244.544 36.66V28.66C238.304 28.66 232.462 30.197 227.089 33.267L231.058 40.213ZM244.544 36.66C254.073 36.66 261.453 39.8366 267.078 46.0537L273.01 40.6863C265.715 32.6234 256.094 28.66 244.544 28.66V36.66ZM267.123 46.1026C272.722 52.0883 275.904 61.6751 275.904 75.67H283.904C283.904 60.6516 280.512 48.705 272.965 40.6374L267.123 46.1026ZM275.904 75.67C275.904 89.3672 272.25 99.0423 265.58 105.419L271.108 111.201C279.85 102.844 283.904 90.7595 283.904 75.67H275.904ZM265.558 105.439C258.752 112.043 250.418 115.36 240.294 115.36V123.36C252.383 123.36 262.749 119.311 271.129 111.181L265.558 105.439ZM240.294 115.36C233.41 115.36 226.758 113.621 220.287 110.073L216.44 117.087C224.023 121.245 231.991 123.36 240.294 123.36V115.36ZM214.364 113.58V150.13H222.364V113.58H214.364ZM214.364 150.13C214.364 151.583 213.997 151.944 213.958 151.982C213.899 152.039 213.467 152.42 211.904 152.42V160.42C214.647 160.42 217.445 159.753 219.539 157.713C221.654 155.655 222.364 152.871 222.364 150.13H214.364ZM211.904 152.42H210.714V160.42H211.904V152.42ZM210.714 152.42C209.151 152.42 208.718 152.039 208.659 151.982C208.62 151.944 208.254 151.583 208.254 150.13H200.254C200.254 152.871 200.964 155.655 203.078 157.713C205.173 159.753 207.97 160.42 210.714 160.42V152.42ZM208.254 150.13V40.48H200.254V150.13H208.254ZM208.254 40.48C208.254 39.0274 208.62 38.6663 208.659 38.6284C208.718 38.5712 209.151 38.19 210.714 38.19V30.19C207.97 30.19 205.173 30.8571 203.078 32.8966C200.964 34.9554 200.254 37.7393 200.254 40.48H208.254ZM269.794 75.5C269.794 64.3142 267.462 55.2711 261.922 49.3156L256.065 54.7644C259.592 58.5556 261.794 65.1525 261.794 75.5H269.794ZM261.953 49.3493C256.55 43.4052 249.289 40.56 240.634 40.56V48.56C247.392 48.56 252.371 50.7014 256.034 54.7307L261.953 49.3493ZM240.634 40.56C236.177 40.56 232.098 41.5489 228.546 43.68C224.994 45.8112 222.201 48.9457 220.104 52.8776L227.163 56.6424C228.693 53.7743 230.547 51.8088 232.662 50.54C234.776 49.2711 237.383 48.56 240.634 48.56V40.56ZM220.08 52.9239C216.176 60.4797 214.364 70.0133 214.364 81.28H222.364C222.364 70.7867 224.065 62.6403 227.187 56.5961L220.08 52.9239ZM214.364 81.28V102.53H222.364V81.28H214.364ZM216.07 105.807C217.059 106.499 218.424 107.109 219.85 107.662C221.361 108.248 223.26 108.889 225.517 109.583L227.87 101.937C225.707 101.271 224.008 100.694 222.742 100.203C221.392 99.6794 220.802 99.3541 220.658 99.2531L216.07 105.807ZM225.633 109.617C230.499 110.955 235.389 111.63 240.294 111.63V103.63C236.132 103.63 231.955 103.058 227.754 101.903L225.633 109.617ZM240.294 111.63C248.946 111.63 256.2 108.537 261.668 102.269L255.639 97.0105C251.814 101.396 246.828 103.63 240.294 103.63V111.63ZM261.636 102.305C267.315 95.9508 269.794 86.7661 269.794 75.5H261.794C261.794 85.7673 259.513 92.6758 255.671 96.9747L261.636 102.305ZM308.007 43.88L305.263 40.9696L305.263 40.9696L308.007 43.88ZM359.857 40.65L357.203 43.6427L357.219 43.6569L357.235 43.6709L359.857 40.65ZM359.517 78.56L361.819 81.8312L361.825 81.8271L361.831 81.8229L359.517 78.56ZM309.367 80.43L310.824 76.705L305.367 74.5694V80.43H309.367ZM317.867 100.49L315.191 103.463L315.208 103.478L315.224 103.493L317.867 100.49ZM362.407 96.24V92.24H359.713L358.7 94.7359L362.407 96.24ZM367.337 97.94L364.776 101.013L364.855 101.078L364.937 101.14L367.337 97.94ZM360.537 113.92L358.44 110.513L358.426 110.522L358.411 110.532L360.537 113.92ZM308.177 108.48L305.499 111.451L305.509 111.46L305.519 111.47L308.177 108.48ZM350.167 48.47L347.634 51.5658L347.656 51.5843L347.679 51.6024L350.167 48.47ZM317.187 51.87L314.267 49.1363L314.267 49.1363L317.187 51.87ZM309.537 69.89L305.537 69.8222L305.488 72.7566L308.272 73.6847L309.537 69.89ZM300.107 76.35C300.107 62.9381 303.841 53.3056 310.751 46.7904L305.263 40.9696C296.306 49.4144 292.107 61.4286 292.107 76.35H300.107ZM310.751 46.7904C317.989 39.9661 326.146 36.66 335.377 36.66V28.66C323.981 28.66 313.892 32.8339 305.263 40.9696L310.751 46.7904ZM335.377 36.66C344.998 36.66 352.117 39.1326 357.203 43.6427L362.511 37.6572C355.583 31.514 346.382 28.66 335.377 28.66V36.66ZM357.235 43.6709C362.383 48.1394 364.867 53.5616 364.867 60.2H372.867C372.867 51.1984 369.344 43.5873 362.479 37.6291L357.235 43.6709ZM364.867 60.2C364.867 66.7594 362.35 71.6477 357.203 75.2971L361.831 81.8229C369.151 76.6323 372.867 69.2806 372.867 60.2H364.867ZM357.215 75.2888C351.946 78.9962 344.887 81.02 335.717 81.02V89.02C346.04 89.02 354.847 86.7371 361.819 81.8312L357.215 75.2888ZM335.717 81.02C326.39 81.02 318.112 79.5566 310.824 76.705L307.909 84.155C316.262 87.4234 325.55 89.02 335.717 89.02V81.02ZM305.367 80.43C305.367 89.7289 308.604 97.535 315.191 103.463L320.543 97.5168C315.796 93.245 313.367 87.6778 313.367 80.43H305.367ZM315.224 103.493C321.683 109.176 329.559 111.97 338.607 111.97V103.97C331.334 103.97 325.384 101.777 320.509 97.4871L315.224 103.493ZM338.607 111.97C351.978 111.97 362.035 107.793 366.113 97.7441L358.7 94.7359C356.432 100.327 350.622 103.97 338.607 103.97V111.97ZM362.407 100.24C363.486 100.24 364.2 100.533 364.776 101.013L369.898 94.8671C367.753 93.0803 365.181 92.24 362.407 92.24V100.24ZM364.937 101.14C365.083 101.25 365.377 101.466 365.377 102.53H373.377C373.377 99.514 372.311 96.6705 369.737 94.74L364.937 101.14ZM365.377 102.53C365.377 104.315 364.036 107.07 358.44 110.513L362.633 117.327C368.825 113.517 373.377 108.678 373.377 102.53H365.377ZM358.411 110.532C353.438 113.652 346.868 115.36 338.437 115.36V123.36C347.912 123.36 356.076 121.441 362.663 117.308L358.411 110.532ZM338.437 115.36C327.297 115.36 318.186 112.026 310.834 105.49L305.519 111.47C314.487 119.441 325.55 123.36 338.437 123.36V115.36ZM310.855 105.509C303.889 99.2301 300.107 89.7525 300.107 76.35H292.107C292.107 91.2808 296.371 103.223 305.499 111.451L310.855 105.509ZM359.947 59.69C359.947 53.9007 357.34 49.0585 352.654 45.3376L347.679 51.6024C350.7 54.0015 351.947 56.6393 351.947 59.69H359.947ZM352.7 45.3742C348.014 41.5403 341.786 39.88 334.527 39.88V47.88C340.641 47.88 344.84 49.2797 347.634 51.5658L352.7 45.3742ZM334.527 39.88C326.719 39.88 319.918 43.1002 314.267 49.1363L320.107 54.6037C324.429 49.9864 329.188 47.88 334.527 47.88V39.88ZM314.267 49.1363C308.669 55.1155 305.669 62.05 305.537 69.8222L313.536 69.9578C313.631 64.3566 315.731 59.2778 320.107 54.6037L314.267 49.1363ZM308.272 73.6847C316.812 76.5313 325.341 77.97 333.847 77.97V69.97C326.259 69.97 318.582 68.6887 310.802 66.0953L308.272 73.6847ZM333.847 77.97C341.516 77.97 347.958 76.7543 352.593 73.7597C357.528 70.5708 359.947 65.6696 359.947 59.69H351.947C351.947 63.2304 350.682 65.4692 348.251 67.0403C345.519 68.8057 340.911 69.97 333.847 69.97V77.97ZM395.667 44.05L392.922 41.1408L392.922 41.1408L395.667 44.05ZM454.827 44.05L457.572 41.1408L457.572 41.1408L454.827 44.05ZM454.827 108.14L457.55 111.07L457.55 111.07L454.827 108.14ZM395.667 108.14L392.944 111.07L392.944 111.07L395.667 108.14ZM444.797 52.72L441.821 55.3925L441.85 55.4244L441.879 55.4558L444.797 52.72ZM405.527 52.72L402.581 50.0144L402.578 50.0171L405.527 52.72ZM405.527 99.64L402.551 102.313L402.58 102.344L402.609 102.376L405.527 99.64ZM444.797 99.64L441.851 96.9344L441.848 96.9371L444.797 99.64ZM398.412 46.9592C405.673 40.1078 414.533 36.66 425.247 36.66V28.66C412.615 28.66 401.755 32.8055 392.922 41.1408L398.412 46.9592ZM425.247 36.66C435.962 36.66 444.821 40.1078 452.082 46.9592L457.572 41.1408C448.739 32.8055 437.879 28.66 425.247 28.66V36.66ZM452.082 46.9592C459.137 53.6168 462.897 63.1613 462.897 76.18H470.897C470.897 61.5454 466.611 49.6699 457.572 41.1408L452.082 46.9592ZM462.897 76.18C462.897 89.2015 459.136 98.6731 452.104 105.21L457.55 111.07C466.611 102.647 470.897 90.8118 470.897 76.18H462.897ZM452.104 105.21C444.846 111.957 435.979 115.36 425.247 115.36V123.36C437.861 123.36 448.714 119.283 457.55 111.07L452.104 105.21ZM425.247 115.36C414.515 115.36 405.648 111.957 398.39 105.21L392.944 111.07C401.78 119.283 412.633 123.36 425.247 123.36V115.36ZM398.39 105.21C391.358 98.6731 387.597 89.2015 387.597 76.18H379.597C379.597 90.8118 383.883 102.647 392.944 111.07L398.39 105.21ZM387.597 76.18C387.597 63.1613 391.357 53.6168 398.412 46.9592L392.922 41.1408C383.883 49.6699 379.597 61.5454 379.597 76.18H387.597ZM447.773 50.0475C441.964 43.5778 434.329 40.39 425.247 40.39V48.39C432.258 48.39 437.657 50.7555 441.821 55.3925L447.773 50.0475ZM425.247 40.39C416.165 40.39 408.494 43.5759 402.581 50.0144L408.473 55.4256C412.76 50.7574 418.236 48.39 425.247 48.39V40.39ZM402.578 50.0171C396.694 56.4365 394.047 65.3642 394.047 76.18H402.047C402.047 66.5958 404.387 59.8835 408.476 55.4229L402.578 50.0171ZM394.047 76.18C394.047 86.9024 396.703 95.8003 402.551 102.313L408.503 96.9675C404.378 92.373 402.047 85.6309 402.047 76.18H394.047ZM402.609 102.376C408.529 108.691 416.192 111.8 425.247 111.8V103.8C418.208 103.8 412.725 101.469 408.445 96.9042L402.609 102.376ZM425.247 111.8C434.302 111.8 441.928 108.689 447.746 102.343L441.848 96.9371C437.693 101.471 432.286 103.8 425.247 103.8V111.8ZM447.743 102.346C453.723 95.8345 456.447 86.9239 456.447 76.18H448.447C448.447 85.6095 446.071 92.3389 441.851 96.9344L447.743 102.346ZM456.447 76.18C456.447 65.3427 453.732 56.4023 447.715 49.9842L441.879 55.4558C446.062 59.9177 448.447 66.6172 448.447 76.18H456.447Z" fill="#218950" mask="url(#path-1-outside-1_34_41)"/>
</svg>
