<svg width="366" height="122" viewBox="0 0 366 122" fill="none" xmlns="http://www.w3.org/2000/svg">
<path d="M26.9628 19.3803C33.702 13.9096 46.7162 16.6082 54.722 26.4704C62.7278 36.3325 62.6936 49.6235 55.9545 55.0942C49.2154 60.5648 30.8959 62.1729 22.89 52.3108C14.8842 42.4486 20.2237 24.8509 26.9628 19.3803Z" fill="url(#paint0_linear_0_1)" fill-opacity="0.88"/>
<path d="M15.1261 58.6133L21.8245 26.4049L48.0236 58.6788L15.1261 58.6133Z" fill="url(#paint1_linear_0_1)" fill-opacity="0.88"/>
<path d="M101.572 25.6536C107.444 32.0458 105.546 45.2006 96.1913 53.7941C86.8368 62.3877 73.5686 63.1657 67.6963 56.7735C61.8241 50.3813 59.0995 32.1942 68.454 23.6007C77.8085 15.0072 95.6996 19.2614 101.572 25.6536Z" fill="url(#paint2_linear_0_1)" fill-opacity="0.88"/>
<path d="M61.6888 16.2365L94.2464 20.9541L63.6338 49.0765L61.6888 16.2365Z" fill="url(#paint3_linear_0_1)" fill-opacity="0.88"/>
<path d="M19.5704 94.997C14.0939 88.2626 16.7814 75.2461 26.6366 67.2318C36.4919 59.2175 49.7829 59.2402 55.2594 65.9747C60.7358 72.7091 62.3596 91.0272 52.5044 99.0415C42.6492 107.056 25.0468 101.731 19.5704 94.997Z" fill="url(#paint4_linear_0_1)" fill-opacity="0.88"/>
<path d="M58.8136 106.8L26.5995 100.129L58.8508 73.9025L58.8136 106.8Z" fill="url(#paint5_linear_0_1)" fill-opacity="0.88"/>
<path d="M97.679 101.767C91.65 108.012 78.4051 106.905 69.2667 98.0819C60.1282 89.259 58.5568 76.0611 64.5858 69.8165C70.6148 63.5719 88.6059 59.7628 97.7444 68.5857C106.883 77.4086 103.708 95.5225 97.679 101.767Z" fill="url(#paint6_linear_0_1)" fill-opacity="0.88"/>
<path d="M104.69 61.3915L101.931 94.1732L72.0256 65.3002L104.69 61.3915Z" fill="url(#paint7_linear_0_1)" fill-opacity="0.88"/>
<path d="M147.6 84H138.3C137.54 84 136.98 83.84 136.62 83.52C136.3 83.16 136.14 82.6 136.14 81.84V42.96C136.14 42.2 136.3 41.66 136.62 41.34C136.98 40.98 137.54 40.8 138.3 40.8H165.06C165.82 40.8 166.36 40.98 166.68 41.34C167.04 41.66 167.22 42.2 167.22 42.96V50.1C167.22 50.86 167.04 51.42 166.68 51.78C166.36 52.1 165.82 52.26 165.06 52.26H149.76V58.5H160.2C160.96 58.5 161.5 58.68 161.82 59.04C162.18 59.36 162.36 59.9 162.36 60.66V67.86C162.36 68.62 162.18 69.18 161.82 69.54C161.5 69.86 160.96 70.02 160.2 70.02H149.76V81.84C149.76 82.6 149.58 83.16 149.22 83.52C148.9 83.84 148.36 84 147.6 84ZM142.68 78.6H143.28V64.56H156.96V63.96H143.28V46.8H161.82V46.2H142.68V78.6ZM174.43 84C173.67 84 173.11 83.84 172.75 83.52C172.43 83.16 172.27 82.6 172.27 81.84V74.7C172.27 73.94 172.43 73.4 172.75 73.08C173.11 72.72 173.67 72.54 174.43 72.54H180.37V52.38H174.43C173.67 52.38 173.11 52.22 172.75 51.9C172.43 51.54 172.27 50.98 172.27 50.22V42.96C172.27 42.2 172.43 41.66 172.75 41.34C173.11 40.98 173.67 40.8 174.43 40.8H199.99C200.75 40.8 201.29 40.98 201.61 41.34C201.97 41.66 202.15 42.2 202.15 42.96V50.22C202.15 50.98 201.97 51.54 201.61 51.9C201.29 52.22 200.75 52.38 199.99 52.38H194.17V72.54H199.99C200.75 72.54 201.29 72.72 201.61 73.08C201.97 73.4 202.15 73.94 202.15 74.7V81.84C202.15 82.6 201.97 83.16 201.61 83.52C201.29 83.84 200.75 84 199.99 84H174.43ZM196.75 78.6V78H187.57V46.8H196.75V46.2H177.67V46.8H186.97V78H177.67V78.6H196.75ZM229.958 84H220.238C219.478 84 218.918 83.84 218.558 83.52C218.238 83.16 218.078 82.6 218.078 81.84V52.38H209.258C208.498 52.38 207.938 52.22 207.578 51.9C207.258 51.54 207.098 50.98 207.098 50.22V42.96C207.098 42.2 207.258 41.66 207.578 41.34C207.938 40.98 208.498 40.8 209.258 40.8H240.938C241.698 40.8 242.238 40.98 242.558 41.34C242.918 41.66 243.098 42.2 243.098 42.96V50.22C243.098 50.98 242.918 51.54 242.558 51.9C242.238 52.22 241.698 52.38 240.938 52.38H232.118V81.84C232.118 82.6 231.938 83.16 231.578 83.52C231.258 83.84 230.718 84 229.958 84ZM224.798 78.6H225.398V46.8H237.698V46.2H212.498V46.8H224.798V78.6ZM260.393 84H251.093C250.333 84 249.773 83.84 249.413 83.52C249.093 83.16 248.933 82.6 248.933 81.84V42.96C248.933 42.2 249.093 41.66 249.413 41.34C249.773 40.98 250.333 40.8 251.093 40.8H269.453C274.893 40.8 278.613 41.88 280.613 44.04C282.613 46.2 283.613 49.02 283.613 52.5V60.18C283.613 63.66 282.613 66.48 280.613 68.64C278.613 70.8 274.893 71.88 269.453 71.88H262.553V81.84C262.553 82.6 262.373 83.16 262.013 83.52C261.693 83.84 261.153 84 260.393 84ZM268.613 66.78C270.493 66.78 272.013 66.58 273.173 66.18C274.373 65.78 275.293 65.24 275.933 64.56C276.573 63.84 277.013 63 277.253 62.04C277.493 61.04 277.613 59.96 277.613 58.8V54.36C277.613 53.2 277.493 52.12 277.253 51.12C277.013 50.12 276.573 49.26 275.933 48.54C275.293 47.82 274.373 47.26 273.173 46.86C272.013 46.42 270.493 46.2 268.613 46.2H255.653V78.6H256.253V66.78H268.613ZM256.253 66.18V46.8H268.613C270.373 46.8 271.793 47 272.873 47.4C273.993 47.76 274.853 48.28 275.453 48.96C276.053 49.64 276.453 50.44 276.653 51.36C276.893 52.28 277.013 53.28 277.013 54.36V58.8C277.013 59.88 276.893 60.88 276.653 61.8C276.453 62.68 276.053 63.46 275.453 64.14C274.853 64.78 273.993 65.28 272.873 65.64C271.793 66 270.373 66.18 268.613 66.18H256.253ZM262.433 52.02V61.08H267.833C268.993 61.08 269.753 60.78 270.113 60.18C270.473 59.58 270.653 58.9 270.653 58.14V54.96C270.653 54.2 270.473 53.52 270.113 52.92C269.753 52.32 268.993 52.02 267.833 52.02H262.433ZM319.831 84H291.991C291.231 84 290.671 83.84 290.311 83.52C289.991 83.16 289.831 82.6 289.831 81.84V42.96C289.831 42.2 289.991 41.66 290.311 41.34C290.671 40.98 291.231 40.8 291.991 40.8H319.831C320.591 40.8 321.131 40.98 321.451 41.34C321.811 41.66 321.991 42.2 321.991 42.96V49.98C321.991 50.74 321.811 51.3 321.451 51.66C321.131 51.98 320.591 52.14 319.831 52.14H303.271V56.76H314.971C315.731 56.76 316.271 56.94 316.591 57.3C316.951 57.62 317.131 58.16 317.131 58.92V65.34C317.131 66.1 316.951 66.66 316.591 67.02C316.271 67.34 315.731 67.5 314.971 67.5H303.271V72.66H319.831C320.591 72.66 321.131 72.84 321.451 73.2C321.811 73.52 321.991 74.06 321.991 74.82V81.84C321.991 82.6 321.811 83.16 321.451 83.52C321.131 83.84 320.591 84 319.831 84ZM316.591 78H296.971V62.46H311.731V61.86H296.971V46.8H316.591V46.2H296.371V78.6H316.591V78ZM365.396 72.66C365.396 74.5 365.116 76.18 364.556 77.7C364.036 79.18 363.076 80.46 361.676 81.54C360.316 82.58 358.416 83.4 355.976 84C353.576 84.6 350.516 84.9 346.796 84.9C343.076 84.9 339.996 84.6 337.556 84C335.116 83.4 333.196 82.58 331.796 81.54C330.436 80.46 329.476 79.18 328.916 77.7C328.396 76.18 328.136 74.5 328.136 72.66V52.2C328.136 50.36 328.396 48.7 328.916 47.22C329.476 45.7 330.436 44.4 331.796 43.32C333.196 42.24 335.116 41.4 337.556 40.8C339.996 40.2 343.076 39.9 346.796 39.9C350.516 39.9 353.576 40.2 355.976 40.8C358.416 41.4 360.316 42.24 361.676 43.32C363.076 44.4 364.036 45.7 364.556 47.22C365.116 48.7 365.396 50.36 365.396 52.2V72.66ZM358.856 71.28V53.58C358.856 51.18 357.996 49.24 356.276 47.76C354.556 46.24 351.356 45.48 346.676 45.48C341.996 45.48 338.816 46.24 337.136 47.76C335.456 49.24 334.616 51.18 334.616 53.58V71.28C334.616 73.68 335.456 75.64 337.136 77.16C338.816 78.64 341.996 79.38 346.676 79.38C351.356 79.38 354.556 78.64 356.276 77.16C357.996 75.64 358.856 73.68 358.856 71.28ZM335.216 71.28V53.58C335.216 51.34 336.016 49.54 337.616 48.18C339.216 46.78 342.236 46.08 346.676 46.08C351.116 46.08 354.156 46.78 355.796 48.18C357.436 49.54 358.256 51.34 358.256 53.58V71.28C358.256 73.52 357.436 75.34 355.796 76.74C354.156 78.1 351.116 78.78 346.676 78.78C342.236 78.78 339.216 78.1 337.616 76.74C336.016 75.34 335.216 73.52 335.216 71.28ZM341.756 70.5C341.756 71.3 342.056 71.98 342.656 72.54C343.256 73.06 344.636 73.32 346.796 73.32C348.956 73.32 350.336 73.06 350.936 72.54C351.536 71.98 351.836 71.3 351.836 70.5V54.36C351.836 53.6 351.536 52.96 350.936 52.44C350.336 51.88 348.956 51.6 346.796 51.6C344.636 51.6 343.256 51.88 342.656 52.44C342.056 52.96 341.756 53.6 341.756 54.36V70.5Z" fill="#218950"/>
<defs>
<linearGradient id="paint0_linear_0_1" x1="22.89" y1="52.3108" x2="54.722" y2="26.4704" gradientUnits="userSpaceOnUse">
<stop stop-color="#174328"/>
<stop offset="0.0001" stop-color="#1A492F" stop-opacity="0.9964"/>
<stop offset="0.03" stop-color="#1D7746" stop-opacity="0.9964"/>
<stop offset="0.205" stop-color="#218950" stop-opacity="0.9754"/>
</linearGradient>
<linearGradient id="paint1_linear_0_1" x1="15.1261" y1="58.6133" x2="41.5233" y2="37.1847" gradientUnits="userSpaceOnUse">
<stop stop-color="#174328"/>
<stop offset="0.0001" stop-color="#1A492F" stop-opacity="0.9964"/>
<stop offset="0.03" stop-color="#1D7746" stop-opacity="0.9964"/>
<stop offset="0.205" stop-color="#218950" stop-opacity="0.9754"/>
</linearGradient>
<linearGradient id="paint2_linear_0_1" x1="68.454" y1="23.6007" x2="96.1913" y2="53.7941" gradientUnits="userSpaceOnUse">
<stop stop-color="#174328"/>
<stop offset="0.0001" stop-color="#1A492F" stop-opacity="0.9964"/>
<stop offset="0.03" stop-color="#1D7746" stop-opacity="0.9964"/>
<stop offset="0.205" stop-color="#218950" stop-opacity="0.9754"/>
</linearGradient>
<linearGradient id="paint3_linear_0_1" x1="61.6888" y1="16.2365" x2="84.6905" y2="41.2749" gradientUnits="userSpaceOnUse">
<stop stop-color="#174328"/>
<stop offset="0.0001" stop-color="#1A492F" stop-opacity="0.9964"/>
<stop offset="0.03" stop-color="#1D7746" stop-opacity="0.9964"/>
<stop offset="0.205" stop-color="#218950" stop-opacity="0.9754"/>
</linearGradient>
<linearGradient id="paint4_linear_0_1" x1="52.5044" y1="99.0415" x2="26.6366" y2="67.2318" gradientUnits="userSpaceOnUse">
<stop stop-color="#174328"/>
<stop offset="0.0001" stop-color="#1A492F" stop-opacity="0.9964"/>
<stop offset="0.03" stop-color="#1D7746" stop-opacity="0.9964"/>
<stop offset="0.205" stop-color="#218950" stop-opacity="0.9754"/>
</linearGradient>
<linearGradient id="paint5_linear_0_1" x1="58.8136" y1="106.8" x2="37.3623" y2="80.4212" gradientUnits="userSpaceOnUse">
<stop stop-color="#174328"/>
<stop offset="0.0001" stop-color="#1A492F" stop-opacity="0.9964"/>
<stop offset="0.03" stop-color="#1D7746" stop-opacity="0.9964"/>
<stop offset="0.205" stop-color="#218950" stop-opacity="0.9754"/>
</linearGradient>
<linearGradient id="paint6_linear_0_1" x1="97.7444" y1="68.5857" x2="69.2667" y2="98.0819" gradientUnits="userSpaceOnUse">
<stop stop-color="#174328"/>
<stop offset="0.0001" stop-color="#379E66" stop-opacity="0.9964"/>
<stop offset="0.03" stop-color="#1D7746" stop-opacity="0.9964"/>
<stop offset="0.205" stop-color="#218950" stop-opacity="0.9754"/>
</linearGradient>
<linearGradient id="paint7_linear_0_1" x1="104.69" y1="61.3915" x2="81.0745" y2="85.8518" gradientUnits="userSpaceOnUse">
<stop stop-color="#174328"/>
<stop offset="0.0001" stop-color="#379E66" stop-opacity="0.9964"/>
<stop offset="0.03" stop-color="#1D7746" stop-opacity="0.9964"/>
<stop offset="0.205" stop-color="#218950" stop-opacity="0.9754"/>
</linearGradient>
</defs>
</svg>
