<svg width="934" height="893" viewBox="0 0 934 893" fill="none" xmlns="http://www.w3.org/2000/svg">
<ellipse opacity="0.7" cx="467" cy="446.5" rx="467" ry="446.5" fill="#E36666"/>
<g clip-path="url(#clip0_0_1)">
<path d="M466.642 508.326C502.343 508.326 531.284 480.943 531.284 447.163C531.284 413.384 502.343 386 466.642 386C430.941 386 402 413.384 402 447.163C402 480.943 430.941 508.326 466.642 508.326Z" fill="#E91919"/>
<path d="M687.875 440.032H662.186C658.502 340.209 576.187 259.699 474.125 256.095V230.97C474.125 227.118 470.938 224.001 467 224.001C463.061 224.001 459.874 227.118 459.874 230.97V256.095C357.812 259.699 275.504 340.209 271.821 440.032H246.125C242.187 440.032 239 443.149 239 447C239 450.852 242.187 453.969 246.125 453.969H271.821C275.505 553.793 357.812 634.304 459.875 637.906V663.031C459.875 666.883 463.062 670 467 670C470.939 670 474.126 666.883 474.126 663.031V637.906C576.187 634.303 658.503 553.793 662.186 453.969H687.875C691.813 453.969 695 450.853 695 447C695 443.149 691.813 440.032 687.875 440.032ZM614.079 453.969H647.936C644.268 546.112 568.332 620.382 474.125 623.969V590.853C474.125 587.002 470.938 583.885 467 583.885C463.061 583.885 459.874 587.002 459.874 590.853V623.969C365.675 620.382 289.738 546.11 286.071 453.969H319.929C323.867 453.969 327.054 450.853 327.054 447C327.054 443.149 323.867 440.032 319.929 440.032H286.071C289.738 347.891 365.675 273.621 459.874 270.032V303.148C459.874 306.999 463.061 310.116 467 310.116C470.938 310.116 474.125 306.999 474.125 303.148V270.032C568.332 273.619 644.268 347.889 647.936 440.032H614.079C610.141 440.032 606.954 443.149 606.954 447C606.954 450.852 610.14 453.969 614.079 453.969Z" fill="#E91919" stroke="#E91919" stroke-width="5"/>
</g>
<defs>
<clipPath id="clip0_0_1">
<rect width="456" height="446" fill="white" transform="translate(239 224)"/>
</clipPath>
</defs>
</svg>
