

<svg width="800" height="740" viewBox="0 0 800 740" fill="none" xmlns="http://www.w3.org/2000/svg">
<g opacity="0.5">
<path fill-rule="evenodd" clip-rule="evenodd" d="M75 370C75 449.731 109.241 526.196 170.19 582.574C231.14 638.952 313.805 670.625 400 670.625C486.195 670.625 568.86 638.952 629.81 582.574C690.759 526.196 725 449.731 725 370C725 290.269 690.759 213.804 629.81 157.426C568.86 101.048 486.195 69.375 400 69.375C313.805 69.375 231.14 101.048 170.19 157.426C109.241 213.804 75 290.269 75 370ZM400 740C293.913 740 192.172 701.018 117.157 631.63C42.1427 562.241 0 468.13 0 370C0 271.87 42.1427 177.759 117.157 108.37C192.172 38.982 293.913 -9.53674e-06 400 -9.53674e-06C506.087 -9.53674e-06 607.828 38.982 682.843 108.37C757.857 177.759 800 271.87 800 370C800 468.13 757.857 562.241 682.843 631.63C607.828 701.018 506.087 740 400 740Z" fill="#0F3A21"/>
<path fill-rule="evenodd" clip-rule="evenodd" d="M75 370C75 449.731 109.241 526.196 170.19 582.574C231.14 638.952 313.805 670.625 400 670.625C486.195 670.625 568.86 638.952 629.81 582.574C690.759 526.196 725 449.731 725 370C725 290.269 690.759 213.804 629.81 157.426C568.86 101.048 486.195 69.375 400 69.375C313.805 69.375 231.14 101.048 170.19 157.426C109.241 213.804 75 290.269 75 370ZM400 740C293.913 740 192.172 701.018 117.157 631.63C42.1427 562.241 0 468.13 0 370C0 271.87 42.1427 177.759 117.157 108.37C192.172 38.982 293.913 -9.53674e-06 400 -9.53674e-06C506.087 -9.53674e-06 607.828 38.982 682.843 108.37C757.857 177.759 800 271.87 800 370C800 468.13 757.857 562.241 682.843 631.63C607.828 701.018 506.087 740 400 740Z" fill="#0EBC54"/>
</g>
<path fill-rule="evenodd" clip-rule="evenodd" d="M37.5 404.688C27.5544 404.688 18.0161 401.033 10.9835 394.528C3.95088 388.023 0 379.2 0 370C0 271.87 42.1427 177.759 117.157 108.37C192.172 38.982 293.913 0 400 0C409.946 0 419.484 3.65458 426.516 10.1598C433.549 16.6649 437.5 25.4878 437.5 34.6875C437.5 43.8872 433.549 52.7101 426.516 59.2152C419.484 65.7204 409.946 69.375 400 69.375C313.805 69.375 231.14 101.048 170.19 157.426C109.241 213.804 75 290.269 75 370C75 379.2 71.0491 388.023 64.0165 394.528C56.9839 401.033 47.4456 404.687 37.5 404.688Z" fill="#0EBC54"/>
<path d="M352.152 454.547C351.804 453.337 351.315 452.268 350.685 451.34C350.055 450.396 349.285 449.6 348.373 448.954C347.478 448.291 346.451 447.786 345.291 447.438C344.147 447.089 342.88 446.915 341.487 446.915C338.886 446.915 336.599 447.562 334.627 448.854C332.671 450.147 331.147 452.028 330.053 454.497C328.959 456.95 328.412 459.949 328.412 463.496C328.412 467.042 328.951 470.058 330.028 472.544C331.105 475.03 332.63 476.927 334.602 478.237C336.574 479.529 338.902 480.175 341.587 480.175C344.023 480.175 346.103 479.745 347.826 478.883C349.566 478.004 350.892 476.77 351.804 475.179C352.732 473.588 353.196 471.707 353.196 469.536L355.383 469.859H342.258V461.756H363.561V468.169C363.561 472.643 362.617 476.488 360.728 479.703C358.838 482.902 356.237 485.371 352.922 487.111C349.608 488.834 345.813 489.696 341.537 489.696C336.764 489.696 332.572 488.644 328.959 486.539C325.346 484.418 322.529 481.41 320.507 477.516C318.502 473.605 317.5 468.964 317.5 463.595C317.5 459.469 318.096 455.79 319.289 452.558C320.499 449.31 322.189 446.559 324.36 444.305C326.531 442.052 329.059 440.336 331.942 439.16C334.826 437.983 337.949 437.395 341.313 437.395C344.197 437.395 346.882 437.817 349.367 438.663C351.853 439.491 354.057 440.668 355.98 442.192C357.919 443.717 359.501 445.532 360.728 447.636C361.954 449.724 362.741 452.028 363.089 454.547H352.152ZM388.699 489.746C384.838 489.746 381.498 488.925 378.681 487.285C375.881 485.628 373.718 483.324 372.193 480.374C370.669 477.408 369.906 473.969 369.906 470.058C369.906 466.114 370.669 462.667 372.193 459.717C373.718 456.751 375.881 454.447 378.681 452.807C381.498 451.15 384.838 450.321 388.699 450.321C392.56 450.321 395.891 451.15 398.692 452.807C401.509 454.447 403.68 456.751 405.205 459.717C406.729 462.667 407.492 466.114 407.492 470.058C407.492 473.969 406.729 477.408 405.205 480.374C403.68 483.324 401.509 485.628 398.692 487.285C395.891 488.925 392.56 489.746 388.699 489.746ZM388.749 481.543C390.505 481.543 391.972 481.045 393.149 480.051C394.325 479.04 395.212 477.665 395.808 475.925C396.421 474.185 396.728 472.204 396.728 469.984C396.728 467.763 396.421 465.783 395.808 464.043C395.212 462.303 394.325 460.927 393.149 459.916C391.972 458.905 390.505 458.4 388.749 458.4C386.975 458.4 385.484 458.905 384.274 459.916C383.081 460.927 382.178 462.303 381.565 464.043C380.968 465.783 380.67 467.763 380.67 469.984C380.67 472.204 380.968 474.185 381.565 475.925C382.178 477.665 383.081 479.04 384.274 480.051C385.484 481.045 386.975 481.543 388.749 481.543ZM425.265 489.721C422.829 489.721 420.658 489.298 418.752 488.453C416.846 487.591 415.338 486.324 414.228 484.65C413.134 482.96 412.587 480.855 412.587 478.336C412.587 476.215 412.977 474.433 413.756 472.991C414.535 471.55 415.595 470.39 416.938 469.511C418.28 468.633 419.805 467.97 421.511 467.523C423.235 467.075 425.041 466.76 426.93 466.578C429.151 466.346 430.941 466.131 432.3 465.932C433.659 465.716 434.645 465.402 435.258 464.987C435.871 464.573 436.178 463.96 436.178 463.148V462.999C436.178 461.424 435.68 460.206 434.686 459.344C433.708 458.483 432.316 458.052 430.51 458.052C428.604 458.052 427.088 458.474 425.961 459.32C424.834 460.148 424.088 461.192 423.724 462.452L413.93 461.656C414.427 459.336 415.405 457.331 416.863 455.641C418.321 453.934 420.202 452.625 422.506 451.713C424.826 450.785 427.511 450.321 430.56 450.321C432.681 450.321 434.711 450.57 436.65 451.067C438.605 451.564 440.337 452.335 441.845 453.379C443.37 454.423 444.571 455.765 445.45 457.406C446.328 459.03 446.767 460.977 446.767 463.247V489H436.725V483.705H436.426C435.813 484.898 434.993 485.951 433.965 486.862C432.938 487.757 431.703 488.461 430.261 488.975C428.82 489.472 427.154 489.721 425.265 489.721ZM428.298 482.413C429.855 482.413 431.231 482.106 432.424 481.493C433.617 480.863 434.554 480.018 435.233 478.957C435.912 477.897 436.252 476.695 436.252 475.353V471.301C435.921 471.517 435.465 471.715 434.885 471.898C434.322 472.063 433.684 472.221 432.971 472.37C432.258 472.503 431.546 472.627 430.833 472.743C430.121 472.842 429.474 472.933 428.894 473.016C427.651 473.199 426.566 473.489 425.638 473.886C424.71 474.284 423.989 474.823 423.475 475.502C422.962 476.165 422.705 476.994 422.705 477.988C422.705 479.43 423.227 480.532 424.271 481.294C425.331 482.04 426.674 482.413 428.298 482.413ZM465.572 438.091V489H454.983V438.091H465.572ZM260.466 540.914H249.578C249.379 539.505 248.973 538.254 248.36 537.161C247.747 536.05 246.96 535.106 245.999 534.327C245.038 533.548 243.927 532.951 242.668 532.537C241.425 532.123 240.074 531.915 238.616 531.915C235.981 531.915 233.686 532.57 231.73 533.879C229.775 535.172 228.258 537.061 227.181 539.547C226.104 542.016 225.566 545.016 225.566 548.545C225.566 552.175 226.104 555.224 227.181 557.693C228.275 560.162 229.8 562.027 231.755 563.286C233.711 564.546 235.973 565.175 238.541 565.175C239.983 565.175 241.317 564.985 242.544 564.604C243.786 564.223 244.888 563.667 245.85 562.938C246.811 562.192 247.606 561.289 248.236 560.229C248.882 559.168 249.33 557.958 249.578 556.599L260.466 556.649C260.184 558.986 259.48 561.24 258.353 563.411C257.243 565.565 255.743 567.496 253.854 569.202C251.981 570.893 249.744 572.235 247.142 573.229C244.557 574.207 241.632 574.696 238.367 574.696C233.827 574.696 229.767 573.669 226.187 571.614C222.624 569.559 219.807 566.584 217.735 562.69C215.68 558.795 214.653 554.08 214.653 548.545C214.653 542.994 215.697 538.271 217.785 534.376C219.873 530.482 222.707 527.516 226.286 525.477C229.866 523.422 233.893 522.395 238.367 522.395C241.317 522.395 244.052 522.809 246.57 523.638C249.106 524.466 251.352 525.676 253.307 527.267C255.262 528.841 256.853 530.772 258.08 533.059C259.323 535.346 260.118 537.964 260.466 540.914ZM285.237 574.746C281.376 574.746 278.037 573.925 275.219 572.285C272.419 570.628 270.256 568.324 268.731 565.374C267.207 562.408 266.444 558.969 266.444 555.058C266.444 551.114 267.207 547.667 268.731 544.717C270.256 541.751 272.419 539.447 275.219 537.807C278.037 536.15 281.376 535.321 285.237 535.321C289.098 535.321 292.429 536.15 295.23 537.807C298.047 539.447 300.218 541.751 301.743 544.717C303.267 547.667 304.03 551.114 304.03 555.058C304.03 558.969 303.267 562.408 301.743 565.374C300.218 568.324 298.047 570.628 295.23 572.285C292.429 573.925 289.098 574.746 285.237 574.746ZM285.287 566.543C287.043 566.543 288.51 566.045 289.687 565.051C290.863 564.04 291.75 562.665 292.346 560.925C292.96 559.185 293.266 557.204 293.266 554.984C293.266 552.763 292.96 550.783 292.346 549.043C291.75 547.303 290.863 545.927 289.687 544.916C288.51 543.905 287.043 543.4 285.287 543.4C283.514 543.4 282.022 543.905 280.812 544.916C279.619 545.927 278.716 547.303 278.103 549.043C277.506 550.783 277.208 552.763 277.208 554.984C277.208 557.204 277.506 559.185 278.103 560.925C278.716 562.665 279.619 564.04 280.812 565.051C282.022 566.045 283.514 566.543 285.287 566.543ZM310.915 574V535.818H321.008V542.555H321.455C322.251 540.317 323.576 538.553 325.432 537.26C327.288 535.967 329.509 535.321 332.094 535.321C334.713 535.321 336.942 535.976 338.781 537.285C340.621 538.577 341.847 540.334 342.46 542.555H342.858C343.637 540.367 345.045 538.619 347.084 537.31C349.139 535.984 351.566 535.321 354.367 535.321C357.93 535.321 360.822 536.456 363.042 538.727C365.28 540.98 366.398 544.179 366.398 548.322V574H355.834V550.41C355.834 548.289 355.27 546.698 354.143 545.637C353.016 544.576 351.608 544.046 349.917 544.046C347.995 544.046 346.495 544.659 345.418 545.886C344.341 547.095 343.802 548.695 343.802 550.683V574H333.536V550.186C333.536 548.313 332.997 546.822 331.92 545.712C330.86 544.601 329.459 544.046 327.719 544.046C326.543 544.046 325.482 544.344 324.537 544.941C323.609 545.521 322.872 546.341 322.325 547.402C321.778 548.446 321.505 549.672 321.505 551.081V574H310.915ZM374.763 588.318V535.818H385.203V542.232H385.676C386.14 541.204 386.811 540.16 387.689 539.099C388.584 538.022 389.744 537.127 391.169 536.415C392.611 535.686 394.401 535.321 396.539 535.321C399.323 535.321 401.891 536.05 404.244 537.509C406.598 538.95 408.479 541.129 409.887 544.046C411.296 546.946 412 550.584 412 554.959C412 559.218 411.312 562.814 409.937 565.747C408.578 568.664 406.722 570.876 404.369 572.384C402.032 573.876 399.414 574.621 396.514 574.621C394.459 574.621 392.71 574.282 391.269 573.602C389.843 572.923 388.675 572.069 387.764 571.042C386.852 569.998 386.156 568.946 385.676 567.885H385.352V588.318H374.763ZM385.129 554.909C385.129 557.179 385.444 559.16 386.073 560.85C386.703 562.54 387.615 563.858 388.808 564.803C390.001 565.731 391.451 566.195 393.158 566.195C394.881 566.195 396.34 565.722 397.533 564.778C398.726 563.817 399.629 562.491 400.242 560.8C400.872 559.094 401.187 557.13 401.187 554.909C401.187 552.705 400.88 550.766 400.267 549.092C399.654 547.419 398.751 546.109 397.558 545.165C396.365 544.22 394.898 543.748 393.158 543.748C391.434 543.748 389.976 544.204 388.783 545.115C387.606 546.027 386.703 547.319 386.073 548.993C385.444 550.667 385.129 552.639 385.129 554.909ZM429.649 523.091V574H419.06V523.091H429.649ZM455.533 574.746C451.605 574.746 448.224 573.95 445.391 572.359C442.573 570.752 440.402 568.482 438.878 565.548C437.353 562.598 436.591 559.11 436.591 555.083C436.591 551.156 437.353 547.709 438.878 544.742C440.402 541.776 442.549 539.464 445.316 537.807C448.1 536.15 451.365 535.321 455.11 535.321C457.629 535.321 459.974 535.727 462.145 536.539C464.332 537.335 466.238 538.536 467.862 540.143C469.503 541.751 470.779 543.773 471.69 546.209C472.602 548.628 473.058 551.462 473.058 554.71V557.619H440.817V551.056H463.089C463.089 549.531 462.758 548.181 462.095 547.004C461.432 545.828 460.513 544.908 459.336 544.245C458.176 543.566 456.825 543.226 455.284 543.226C453.677 543.226 452.251 543.599 451.009 544.344C449.782 545.074 448.821 546.06 448.125 547.303C447.429 548.529 447.073 549.896 447.056 551.404V557.643C447.056 559.533 447.404 561.165 448.1 562.54C448.813 563.916 449.815 564.977 451.108 565.722C452.401 566.468 453.933 566.841 455.707 566.841C456.883 566.841 457.96 566.675 458.938 566.344C459.916 566.012 460.753 565.515 461.449 564.852C462.145 564.189 462.675 563.377 463.04 562.416L472.834 563.062C472.337 565.416 471.317 567.471 469.776 569.227C468.252 570.967 466.28 572.326 463.86 573.304C461.457 574.265 458.681 574.746 455.533 574.746ZM500.277 535.818V543.773H477.283V535.818H500.277ZM482.504 526.67H493.093V562.267C493.093 563.245 493.242 564.007 493.54 564.554C493.839 565.084 494.253 565.457 494.783 565.673C495.33 565.888 495.96 565.996 496.673 565.996C497.17 565.996 497.667 565.954 498.164 565.871C498.661 565.772 499.042 565.697 499.308 565.648L500.973 573.528C500.443 573.693 499.697 573.884 498.736 574.099C497.775 574.331 496.606 574.472 495.231 574.522C492.679 574.621 490.442 574.282 488.519 573.503C486.613 572.724 485.13 571.514 484.07 569.874C483.009 568.233 482.487 566.161 482.504 563.659V526.67ZM524.165 574.746C520.238 574.746 516.857 573.95 514.023 572.359C511.206 570.752 509.035 568.482 507.511 565.548C505.986 562.598 505.224 559.11 505.224 555.083C505.224 551.156 505.986 547.709 507.511 544.742C509.035 541.776 511.181 539.464 513.949 537.807C516.733 536.15 519.998 535.321 523.743 535.321C526.262 535.321 528.607 535.727 530.778 536.539C532.965 537.335 534.871 538.536 536.495 540.143C538.136 541.751 539.412 543.773 540.323 546.209C541.235 548.628 541.69 551.462 541.69 554.71V557.619H509.45V551.056H531.722C531.722 549.531 531.391 548.181 530.728 547.004C530.065 545.828 529.145 544.908 527.969 544.245C526.809 543.566 525.458 543.226 523.917 543.226C522.309 543.226 520.884 543.599 519.641 544.344C518.415 545.074 517.454 546.06 516.758 547.303C516.062 548.529 515.705 549.896 515.689 551.404V557.643C515.689 559.533 516.037 561.165 516.733 562.54C517.446 563.916 518.448 564.977 519.741 565.722C521.033 566.468 522.566 566.841 524.339 566.841C525.516 566.841 526.593 566.675 527.571 566.344C528.549 566.012 529.386 565.515 530.082 564.852C530.778 564.189 531.308 563.377 531.673 562.416L541.467 563.062C540.969 565.416 539.95 567.471 538.409 569.227C536.884 570.967 534.912 572.326 532.493 573.304C530.09 574.265 527.314 574.746 524.165 574.746ZM562.67 574.621C559.77 574.621 557.144 573.876 554.79 572.384C552.454 570.876 550.598 568.664 549.222 565.747C547.863 562.814 547.184 559.218 547.184 554.959C547.184 550.584 547.888 546.946 549.297 544.046C550.705 541.129 552.578 538.95 554.915 537.509C557.268 536.05 559.845 535.321 562.646 535.321C564.783 535.321 566.565 535.686 567.99 536.415C569.432 537.127 570.592 538.022 571.47 539.099C572.365 540.16 573.045 541.204 573.509 542.232H573.832V523.091H584.396V574H573.956V567.885H573.509C573.011 568.946 572.307 569.998 571.396 571.042C570.501 572.069 569.332 572.923 567.891 573.602C566.465 574.282 564.725 574.621 562.67 574.621ZM566.026 566.195C567.733 566.195 569.175 565.731 570.352 564.803C571.545 563.858 572.456 562.54 573.086 560.85C573.732 559.16 574.055 557.179 574.055 554.909C574.055 552.639 573.741 550.667 573.111 548.993C572.481 547.319 571.57 546.027 570.376 545.115C569.183 544.204 567.733 543.748 566.026 543.748C564.286 543.748 562.82 544.22 561.626 545.165C560.433 546.109 559.53 547.419 558.917 549.092C558.304 550.766 557.997 552.705 557.997 554.909C557.997 557.13 558.304 559.094 558.917 560.8C559.547 562.491 560.45 563.817 561.626 564.778C562.82 565.722 564.286 566.195 566.026 566.195Z" fill="white"/>
<path d="M266.721 368.69C257.706 368.69 249.677 367.141 242.634 364.042C235.631 360.903 230.097 356.596 226.032 351.123C222.007 345.609 219.935 339.25 219.814 332.046H246.135C246.296 335.065 247.282 337.721 249.093 340.015C250.944 342.269 253.399 344.019 256.458 345.267C259.517 346.515 262.958 347.138 266.781 347.138C270.766 347.138 274.287 346.434 277.346 345.026C280.405 343.617 282.799 341.665 284.53 339.17C286.26 336.674 287.126 333.797 287.126 330.537C287.126 327.237 286.2 324.319 284.349 321.783C282.538 319.208 279.922 317.195 276.501 315.746C273.12 314.298 269.095 313.573 264.427 313.573H252.896V294.376H264.427C268.371 294.376 271.852 293.692 274.871 292.323C277.929 290.955 280.304 289.063 281.994 286.648C283.685 284.193 284.53 281.336 284.53 278.076C284.53 274.977 283.785 272.26 282.296 269.926C280.847 267.552 278.795 265.7 276.138 264.372C273.522 263.044 270.464 262.38 266.962 262.38C263.421 262.38 260.181 263.024 257.243 264.312C254.305 265.559 251.951 267.35 250.18 269.685C248.409 272.019 247.463 274.756 247.342 277.895H222.289C222.41 270.771 224.442 264.493 228.386 259.06C232.33 253.626 237.643 249.38 244.324 246.322C251.045 243.223 258.631 241.673 267.083 241.673C275.615 241.673 283.081 243.223 289.48 246.322C295.879 249.421 300.85 253.606 304.391 258.879C307.973 264.111 309.744 269.987 309.704 276.506C309.744 283.429 307.591 289.204 303.244 293.832C298.938 298.461 293.324 301.399 286.401 302.646V303.612C295.497 304.779 302.419 307.939 307.168 313.09C311.958 318.201 314.332 324.601 314.292 332.288C314.332 339.331 312.3 345.589 308.195 351.062C304.13 356.536 298.515 360.842 291.352 363.982C284.188 367.121 275.978 368.69 266.721 368.69ZM381.558 369.717C371.175 369.676 362.24 367.121 354.754 362.05C347.309 356.979 341.574 349.634 337.549 340.015C333.565 330.396 331.593 318.825 331.633 305.303C331.633 291.82 333.625 280.33 337.61 270.832C341.634 261.334 347.369 254.109 354.815 249.159C362.301 244.169 371.215 241.673 381.558 241.673C391.902 241.673 400.796 244.169 408.242 249.159C415.727 254.15 421.483 261.394 425.507 270.892C429.532 280.35 431.524 291.82 431.484 305.303C431.484 318.866 429.472 330.456 425.447 340.075C421.463 349.694 415.748 357.039 408.302 362.11C400.856 367.181 391.942 369.717 381.558 369.717ZM381.558 348.044C388.642 348.044 394.296 344.482 398.522 337.359C402.748 330.235 404.841 319.55 404.801 305.303C404.801 295.925 403.835 288.117 401.903 281.879C400.011 275.641 397.315 270.952 393.813 267.813C390.352 264.674 386.267 263.104 381.558 263.104C374.515 263.104 368.881 266.626 364.655 273.669C360.429 280.712 358.296 291.257 358.256 305.303C358.256 314.801 359.202 322.729 361.093 329.088C363.025 335.407 365.742 340.156 369.243 343.335C372.744 346.474 376.85 348.044 381.558 348.044ZM517.797 343.818V337.298C517.797 332.348 518.843 327.8 520.936 323.655C523.069 319.469 526.148 316.129 530.173 313.634C534.237 311.098 539.188 309.83 545.023 309.83C550.94 309.83 555.91 311.078 559.935 313.573C564 316.068 567.058 319.409 569.111 323.594C571.204 327.74 572.25 332.308 572.25 337.298V343.818C572.25 348.768 571.204 353.336 569.111 357.522C567.018 361.667 563.939 364.988 559.874 367.483C555.809 370.018 550.859 371.286 545.023 371.286C539.107 371.286 534.137 370.018 530.112 367.483C526.088 364.988 523.029 361.667 520.936 357.522C518.843 353.336 517.797 348.768 517.797 343.818ZM535.364 337.298V343.818C535.364 346.676 536.049 349.372 537.417 351.908C538.826 354.443 541.361 355.711 545.023 355.711C548.686 355.711 551.181 354.463 552.509 351.968C553.878 349.473 554.562 346.756 554.562 343.818V337.298C554.562 334.36 553.918 331.624 552.63 329.088C551.342 326.553 548.807 325.285 545.023 325.285C541.401 325.285 538.886 326.553 537.477 329.088C536.069 331.624 535.364 334.36 535.364 337.298ZM454.349 273.065V266.545C454.349 261.555 455.415 256.987 457.548 252.842C459.681 248.656 462.76 245.316 466.785 242.82C470.85 240.325 475.76 239.077 481.515 239.077C487.471 239.077 492.462 240.325 496.487 242.82C500.511 245.316 503.57 248.656 505.663 252.842C507.755 256.987 508.802 261.555 508.802 266.545V273.065C508.802 278.056 507.735 282.624 505.602 286.769C503.509 290.915 500.431 294.235 496.366 296.73C492.341 299.185 487.391 300.413 481.515 300.413C475.639 300.413 470.669 299.165 466.604 296.67C462.579 294.134 459.52 290.814 457.428 286.709C455.375 282.563 454.349 278.016 454.349 273.065ZM472.037 266.545V273.065C472.037 276.003 472.721 278.72 474.089 281.215C475.498 283.71 477.973 284.958 481.515 284.958C485.218 284.958 487.733 283.71 489.061 281.215C490.429 278.72 491.114 276.003 491.114 273.065V266.545C491.114 263.607 490.47 260.871 489.182 258.335C487.894 255.8 485.338 254.532 481.515 254.532C477.933 254.532 475.458 255.82 474.089 258.396C472.721 260.971 472.037 263.688 472.037 266.545ZM462.317 367L547.317 243.364H563.134L478.134 367H462.317Z" fill="white"/>
</svg>

