<svg width="123" height="123" viewBox="0 0 123 123" fill="none" xmlns="http://www.w3.org/2000/svg">
<path d="M27.0388 20.3384C33.7779 14.8678 46.7921 17.5664 54.7979 27.4285C62.8038 37.2907 62.7696 50.5817 56.0304 56.0523C49.2913 61.523 30.9718 63.1311 22.966 53.2689C14.9601 43.4068 20.2997 25.8091 27.0388 20.3384Z" fill="#4676F0"/>
<path d="M15.2021 59.5715L21.9004 27.3631L48.0996 59.637L15.2021 59.5715Z" fill="#4676F0"/>
<path d="M101.648 26.6117C107.52 33.004 105.622 46.1588 96.2673 54.7523C86.9128 63.3458 73.6445 64.1239 67.7723 57.7317C61.9001 51.3394 59.1755 33.1524 68.53 24.5589C77.8844 15.9654 95.7756 20.2195 101.648 26.6117Z" fill="#4676F0"/>
<path d="M61.7648 17.1946L94.3223 21.9123L63.7097 50.0347L61.7648 17.1946Z" fill="#4676F0"/>
<path d="M19.6464 95.9552C14.17 89.2208 16.8575 76.2043 26.7127 68.19C36.5679 60.1757 49.859 60.1985 55.3354 66.9329C60.8119 73.6673 62.4357 91.9854 52.5805 99.9997C42.7252 108.014 25.1229 102.69 19.6464 95.9552Z" fill="#4676F0"/>
<path d="M58.8897 107.758L26.6755 101.088L58.9269 74.8607L58.8897 107.758Z" fill="#4676F0"/>
<path d="M97.7549 102.725C91.726 108.97 78.4811 107.863 69.3426 99.0401C60.2042 90.2171 58.6327 77.0193 64.6617 70.7747C70.6907 64.5301 88.6819 60.721 97.8203 69.5439C106.959 78.3668 103.784 96.4807 97.7549 102.725Z" fill="#4676F0"/>
<path d="M104.766 62.3497L102.007 95.1314L72.1015 66.2584L104.766 62.3497Z" fill="#4676F0"/>
</svg>
