<svg width="934" height="893" viewBox="0 0 934 893" fill="none" xmlns="http://www.w3.org/2000/svg">
<path opacity="0.7" d="M467 893C724.917 893 934 693.095 934 446.5C934 199.905 724.917 0 467 0C209.083 0 0 199.905 0 446.5C0 693.095 209.083 893 467 893Z" fill="#227A6A" fill-opacity="0.9964"/>
<path d="M579 349.98H366.2C360.018 349.98 355 355.248 355 361.74C355 368.232 360.018 373.5 366.2 373.5H579C585.182 373.5 590.2 368.232 590.2 361.74C590.2 355.248 585.182 349.98 579 349.98Z" fill="#79E1C8" fill-opacity="0.9964" stroke="#79E1C8" stroke-opacity="0.9964" stroke-width="15.2"/>
<path d="M579 438.18H366.2C360.018 438.18 355 443.448 355 449.94C355 456.432 360.018 461.7 366.2 461.7H579C585.182 461.7 590.2 456.432 590.2 449.94C590.2 443.448 585.182 438.18 579 438.18Z" fill="#79E1C8" fill-opacity="0.9964" stroke="#79E1C8" stroke-opacity="0.9964" stroke-width="15.2"/>
<path d="M579 526.38H366.2C360.018 526.38 355 531.648 355 538.14C355 544.632 360.018 549.9 366.2 549.9H579C585.182 549.9 590.2 544.632 590.2 538.14C590.2 531.648 585.182 526.38 579 526.38Z" fill="#79E1C8" fill-opacity="0.9964" stroke="#79E1C8" stroke-opacity="0.9964" stroke-width="15.2"/>
<path d="M677 308.82C677 276.345 651.923 250.02 621 250.02H313C282.071 250.02 257 276.345 257 308.82V585.18C257 617.649 282.071 643.98 313 643.98H621C651.923 643.98 677 617.649 677 585.18V308.82ZM654.6 585.18C654.6 604.66 639.553 620.46 621 620.46H313C294.447 620.46 279.4 604.66 279.4 585.18V308.82C279.4 289.34 294.447 273.54 313 273.54H621C639.553 273.54 654.6 289.34 654.6 308.82V585.18Z" fill="#79E1C8" fill-opacity="0.9964" stroke="#79E1C8" stroke-opacity="0.9964" stroke-width="15.2"/>
</svg>
