<svg width="228" height="214" viewBox="0 0 228 214" fill="none" xmlns="http://www.w3.org/2000/svg">
<rect width="228" height="214" rx="19" fill="#525FD5" fill-opacity="0.37"/>
<g clip-path="url(#clip0_0_1)">
<path d="M144.534 74.0056H163.392L129.424 32.3806C128.593 31.3256 127.124 31.1931 126.144 32.0856C126.128 32.1006 126.111 32.1156 126.095 32.1306L118.971 38.8056C117.989 39.6981 117.865 41.2756 118.696 42.3281C118.71 42.3456 118.724 42.3631 118.738 42.3806L144.534 74.0056Z" fill="#4B86D2" stroke="#B8DCFF" stroke-width="1.5625"/>
<path d="M82.4661 74.0056L108.262 42.4056C109.118 41.3756 109.037 39.7956 108.078 38.8756C108.061 38.8606 108.045 38.8456 108.029 38.8306L100.905 32.1306C99.9457 31.2106 98.4743 31.2981 97.6175 32.3281C97.6036 32.3456 97.5896 32.3631 97.5756 32.3806L63.6083 74.0056H82.4661Z" fill="#4B86D2" stroke="#B8DCFF" stroke-width="1.5625"/>
<path d="M165.557 176.506H61.4431C56.6193 176.528 52.5776 172.588 52.1306 167.431L45.9844 96.5056H181.016L174.823 167.431C174.378 172.571 170.364 176.503 165.557 176.506Z" fill="#3864E5" stroke="#B8DCFF" stroke-width="1.5625"/>
<path d="M108.844 154.006V126.506C108.844 123.743 106.76 121.506 104.188 121.506C101.615 121.506 99.5312 123.743 99.5312 126.506V154.006C99.5312 156.768 101.615 159.006 104.188 159.006C106.76 159.006 108.844 156.768 108.844 154.006Z" fill="white" stroke="#B8DCFF" stroke-width="1.5625"/>
<path d="M146.094 154.006V126.506C146.094 123.743 144.01 121.506 141.438 121.506C138.865 121.506 136.781 123.743 136.781 126.506V154.006C136.781 156.768 138.865 159.006 141.438 159.006C144.01 159.006 146.094 156.768 146.094 154.006Z" fill="white" stroke="#B8DCFF" stroke-width="1.5625"/>
<path d="M127.469 154.006V126.506C127.469 123.743 125.385 121.506 122.812 121.506C120.24 121.506 118.156 123.743 118.156 126.506V154.006C118.156 156.768 120.24 159.006 122.812 159.006C125.385 159.006 127.469 156.768 127.469 154.006Z" fill="white" stroke="#B8DCFF" stroke-width="1.5625"/>
<path d="M90.2188 154.006V126.506C90.2188 123.743 88.1351 121.506 85.5625 121.506C82.9899 121.506 80.9062 123.743 80.9062 126.506V154.006C80.9062 156.768 82.9899 159.006 85.5625 159.006C88.1351 159.006 90.2188 156.768 90.2188 154.006Z" fill="white" stroke="#B8DCFF" stroke-width="1.5625"/>
<path d="M43.6562 74.0056H183.344C185.916 74.0056 188 76.2431 188 79.0056V99.0056C188 101.768 185.916 104.006 183.344 104.006H43.6562C41.0837 104.006 39 101.768 39 99.0056V79.0056C39 76.2456 41.0837 74.0056 43.6562 74.0056Z" fill="#3864E5" stroke="#B8DCFF" stroke-width="1.5625"/>
<path d="M64.6094 96.5006C67.181 96.5006 69.2656 94.262 69.2656 91.5006C69.2656 88.7392 67.181 86.5006 64.6094 86.5006C62.0378 86.5006 59.9531 88.7392 59.9531 91.5006C59.9531 94.262 62.0378 96.5006 64.6094 96.5006Z" fill="black" stroke="#B8DCFF" stroke-width="1.5625"/>
<path d="M162.391 96.5006C164.962 96.5006 167.047 94.262 167.047 91.5006C167.047 88.7392 164.962 86.5006 162.391 86.5006C159.819 86.5006 157.734 88.7392 157.734 91.5006C157.734 94.262 159.819 96.5006 162.391 96.5006Z" fill="black" stroke="#B8DCFF" stroke-width="1.5625"/>
<path d="M63.4453 94.0006C66.0169 94.0006 68.1016 91.762 68.1016 89.0006C68.1016 86.2392 66.0169 84.0006 63.4453 84.0006C60.8737 84.0006 58.7891 86.2392 58.7891 89.0006C58.7891 91.762 60.8737 94.0006 63.4453 94.0006Z" fill="#4B86D2" stroke="#B8DCFF" stroke-width="1.5625"/>
<path d="M161.227 94.0006C163.798 94.0006 165.883 91.762 165.883 89.0006C165.883 86.2392 163.798 84.0006 161.227 84.0006C158.655 84.0006 156.57 86.2392 156.57 89.0006C156.57 91.762 158.655 94.0006 161.227 94.0006Z" fill="#4B86D2" stroke="#B8DCFF" stroke-width="1.5625"/>
<path d="M180.201 104.006H46.7992C47.1065 106.851 49.3462 108.998 52.0142 109.006H174.823L169.771 166.981C169.543 169.556 167.522 171.518 165.114 171.506H66.9375C64.3649 171.506 62.2812 173.743 62.2812 176.506H165.557C170.381 176.528 174.422 172.588 174.869 167.431L180.364 104.006H180.201Z" fill="#3864E5" stroke="#3864E5" stroke-width="1.5625"/>
<path d="M180.154 106.506L180.364 104.006H48.3125C48.3125 105.386 49.3555 106.506 50.6406 106.506H180.154Z" fill="black" stroke="#3864E5" stroke-width="1.5625"/>
<path d="M183.344 84.0056V99.0056H48.3125C45.7399 99.0056 43.6562 101.243 43.6562 104.006H183.344C185.916 104.006 188 101.768 188 99.0056V79.0056C185.427 79.0056 183.344 81.2456 183.344 84.0056Z" fill="#3864E5" stroke="#3864E5" stroke-width="1.5625"/>
<path d="M82.4661 74.0055L108.262 42.4055C109.118 41.3755 109.037 39.7955 108.078 38.8755C108.061 38.8605 108.045 38.8455 108.029 38.8305C106.029 36.9455 102.984 37.158 101.228 39.3055C101.221 39.313 101.214 39.323 101.207 39.3305L72.9208 74.0055H82.4661Z" fill="#385EB7" stroke="#B8DCFF" stroke-width="1.5625"/>
<path d="M144.534 74.0056H154.079L125.769 39.3056C124.025 37.1456 120.983 36.9131 118.971 38.7831C118.964 38.7906 118.955 38.7981 118.948 38.8056C117.965 39.6981 117.842 41.2756 118.673 42.3281C118.687 42.3456 118.701 42.3631 118.715 42.3806L144.534 74.0056Z" fill="#385EB7" stroke="#B8DCFF" stroke-width="1.5625"/>
<path d="M67.9287 173.215C71.2708 173.108 74.8132 173.272 78.1455 172.7C80.2929 172.332 82.4435 172.064 84.5999 171.789C84.9903 171.739 87.2858 171.407 85.2811 172.027C77.8421 174.327 69.5471 174.045 61.9283 173.572C61.2004 173.527 62.185 172.851 62.3176 172.78C64.0389 171.853 66.0145 171.688 67.8638 171.512C68.6972 171.433 70.9523 170.513 70.3613 171.234C68.7869 173.158 61.9206 174.669 63.9717 173.612C67.6425 171.718 72.073 171.219 75.9724 170.561C77.8624 170.242 79.7429 170.006 81.6484 170.006" stroke="#3864E5" stroke-width="3" stroke-linecap="round"/>
<path d="M61.2148 173.572C65.556 173.572 69.8803 172.859 74.2372 172.859C77.6799 172.859 81.334 173.236 84.7134 172.304C87.1912 171.621 89.6922 171.789 92.222 171.789C95.2215 171.789 98.2127 171.433 101.223 171.433C104.539 171.433 107.745 170.653 111.083 170.739C115.085 170.843 119.346 171.007 123.278 171.967C130.644 173.767 138.441 171.789 145.868 171.789C148.595 171.789 151.134 171.426 153.815 170.997C157.919 170.339 162.165 170.363 166.302 170.363" stroke="#3864E5" stroke-width="3" stroke-linecap="round"/>
<path d="M74.3507 174.285C81.4405 174.285 88.703 174.496 95.6601 173.136C99.3526 172.414 103.031 172.314 106.753 171.809C114.456 170.763 122.051 170.363 129.813 170.363" stroke="#3864E5" stroke-width="3" stroke-linecap="round"/>
<path d="M84.5675 173.928C86.0353 172.853 89.236 172.253 90.9895 172.146C91.8606 172.092 92.7449 172.146 93.6167 172.146C95.22 172.146 96.8992 172.502 98.5791 172.502C101.633 172.502 92.3157 172.312 89.4651 173.651C87.4194 174.612 88.8283 174.285 90.2759 174.285C91.3409 174.285 92.4058 174.285 93.4707 174.285C94.9357 174.285 96.4006 174.285 97.8656 174.285C99.5092 174.285 101.109 173.572 102.666 173.572C103.613 173.572 104.663 173.743 105.585 173.493C106.408 173.269 107.643 173.523 108.358 173.037C109.527 172.244 111.858 172.891 113.077 173.037C115.241 173.296 117.424 173.215 119.597 173.215" stroke="#3864E5" stroke-width="3" stroke-linecap="round"/>
<path d="M99.4549 173.215C103.587 173.604 107.697 173.572 111.845 173.572C113.428 173.572 115.064 172.606 116.678 172.502C118.805 172.365 120.969 172.502 123.1 172.502" stroke="#3864E5" stroke-width="3" stroke-linecap="round"/>
<path d="M97.4115 174.285C97.6998 173.581 102.884 173.572 103.833 173.572C105.493 173.572 107.153 173.572 108.812 173.572C113.691 173.572 118.576 172.146 123.391 172.146" stroke="#3864E5" stroke-width="3" stroke-linecap="round"/>
<path d="M99.4549 173.572C120.135 173.572 140.786 173.215 161.404 173.215C163.134 173.215 164.864 173.215 166.594 173.215C167.968 173.215 168.606 173.645 168.994 172.066C170.827 164.605 172.531 156.774 172.951 148.969C173.166 144.97 173.066 141.259 173.875 137.302C174.315 135.154 174.686 132.991 175.059 130.824C175.446 128.578 176.497 126.068 176.519 123.772C176.553 120.189 175.351 116.722 175.351 113.175C175.351 113.12 175.311 112.369 175.286 112.402C174.921 112.893 174.809 114.76 174.767 115.136C174.416 118.328 174.28 121.556 174.054 124.763C173.655 130.416 173.016 147.414 173.016 141.739C173.016 137.149 173.941 132.66 174.411 128.13C174.737 124.989 174.823 121.382 175.578 118.384C176.023 116.62 175.357 114.721 175.935 112.957" stroke="#3864E5" stroke-width="3" stroke-linecap="round"/>
<path d="M175.935 112.244C174.504 117.489 173.951 122.692 172.87 127.972C171.762 133.385 170.185 139.422 170.097 145.047C170.045 148.349 169.278 151.507 169.221 154.793C169.2 155.995 168.94 158.484 168.216 159.369C167.166 160.651 168.389 155.734 168.702 153.961C169.329 150.419 169.487 146.627 170.454 143.185C170.561 142.803 171.274 140.716 171.443 141.105C172.68 143.96 172.499 148.394 172.708 151.584C172.926 154.915 172.591 158.498 171.621 161.607C170.886 163.966 170.942 166.659 170.373 169.095C169.351 173.463 170.166 160.002 170.373 155.467C170.429 154.216 170.398 153.054 170.616 151.822C171.052 149.359 170.629 156.18 170.616 156.536C170.497 159.729 169.721 162.408 169.059 165.411C168.572 167.622 168.286 170.152 167.47 172.146" stroke="#3864E5" stroke-width="3" stroke-linecap="round"/>
<path d="M178.511 110C178.511 112.042 178.126 114.093 177.944 116.101C177.798 117.706 177.97 119.208 177.701 120.816C177.19 123.867 177.582 127.312 176.906 130.284C176.673 131.307 176.468 132.469 176.468 133.533C176.468 134.545 176.023 135.27 175.9 136.247C175.626 138.429 175.3 140.62 175.3 142.804C175.3 145.036 174.717 147.124 174.717 149.301C174.717 151.927 174.92 154.935 174.279 157.442C173.494 160.508 173.608 164.073 173.03 167.248C172.789 168.57 172.546 169.984 172.365 171.308C172.316 171.666 169.535 173.824 169.17 173.824" stroke="#3864E5" stroke-width="3" stroke-linecap="round"/>
<path d="M174.184 110.104H177.395" stroke="#3864E5" stroke-width="3" stroke-linecap="round"/>
<path d="M97.4115 174.285C100.625 174.285 103.911 173.929 107.061 173.929C111.529 173.929 116.009 172.859 120.472 172.859" stroke="#3864E5" stroke-width="3" stroke-linecap="round"/>
<path d="M102.666 173.928C112.148 173.928 121.515 173.572 130.981 173.572" stroke="#3864E5" stroke-width="3" stroke-linecap="round"/>
<path d="M105.001 174.285C109.448 173.582 113.714 172.859 118.218 172.859C122.224 172.859 126.229 172.859 130.235 172.859C132.397 172.859 134.56 172.859 136.722 172.859C142.542 172.859 148.313 173.061 154.042 171.789" stroke="#3864E5" stroke-width="3" stroke-linecap="round"/>
<path d="M128.354 174.642C131.32 174.642 134.272 174.285 137.257 174.285C141.278 174.285 145.261 173.572 149.242 173.572C152.432 173.572 156.49 174.392 159.523 173.295C161.598 172.544 164.13 172.859 166.302 172.859" stroke="#3864E5" stroke-width="3" stroke-linecap="round"/>
<path d="M63.2582 174.642C67.7111 174.642 72.0327 174.542 76.4427 173.75C78.1052 173.452 79.8104 173.572 81.4863 173.572C82.6382 173.572 83.9132 172.841 85.054 172.661C89.1053 172.02 93.2378 172.146 97.3142 172.146C102.639 172.146 108.008 172.331 113.337 172.502C115.606 172.575 117.881 172.859 120.18 172.859C122.025 172.859 123.884 172.953 125.727 172.859C127.366 172.775 128.986 172.426 130.64 172.383C134.175 172.293 137.615 173.073 141.133 173.196C148.475 173.452 155.748 172.146 163.091 172.146" stroke="#3864E5" stroke-width="3" stroke-linecap="round"/>
<path d="M100.622 174.285C108.879 174.285 117.162 173.928 125.435 173.928" stroke="#3864E5" stroke-width="3" stroke-linecap="round"/>
<path d="M99.4549 174.285C106.295 174.285 113.103 174.44 119.889 173.493C127.354 172.45 135.494 173.139 142.949 173.493C151.429 173.895 159.96 173.572 168.345 173.572" stroke="#3864E5" stroke-width="3" stroke-linecap="round"/>
<path d="M63.2582 173.215C67.8586 173.215 72.4806 173.572 77.059 173.572C79.8105 173.572 82.562 173.572 85.3135 173.572C88.0013 173.572 90.8781 173.194 93.5194 173.75C97.1837 174.522 101.163 173.772 104.871 174.008C108.026 174.208 111.193 174.091 114.342 174.305C115.977 174.416 117.524 174.642 119.175 174.642C120.42 174.642 122.021 174.329 123.245 174.661C125.251 175.206 127.375 174.998 129.457 174.998C135.914 174.998 142.352 173.929 148.787 173.929C155.259 173.929 161.613 172.859 168.053 172.859" stroke="#3864E5" stroke-width="3" stroke-linecap="round"/>
<line x1="61.1044" y1="175.5" x2="168.352" y2="175.5" stroke="#385EB7"/>
<path d="M179.489 108.951L174.491 170.169" stroke="#385EB7"/>
<path d="M130.689 171.789C133.755 171.789 136.706 171.433 139.738 171.433" stroke="#3864E5" stroke-width="3" stroke-linecap="round"/>
<path d="M171.848 147.543C171.747 152.174 171.888 157.383 170.681 161.805" stroke="#3864E5" stroke-width="3" stroke-linecap="round"/>
<path d="M173.6 166.441C173.484 167.57 173.07 168.822 173.016 170.006C172.962 171.196 171.876 171.624 171.329 172.225C170.635 172.988 169.843 173.178 169.156 173.849C168.928 174.073 167.212 174.642 166.886 174.642" stroke="#3864E5" stroke-width="3" stroke-linecap="round"/>
<ellipse cx="172.854" cy="168.5" rx="15.1456" ry="15.5" fill="#3864E5"/>
<path d="M172.854 161.042V177.958M165.93 169.5H179.779" stroke="#F5F5F5" stroke-width="4" stroke-linecap="round" stroke-linejoin="round"/>
</g>
<defs>
<clipPath id="clip0_0_1">
<rect width="149" height="160" fill="white" transform="translate(39 24)"/>
</clipPath>
</defs>
</svg>
