<svg width="934" height="893" viewBox="0 0 934 893" fill="none" xmlns="http://www.w3.org/2000/svg">
<path opacity="0.7" d="M467 893C724.917 893 934 693.095 934 446.5C934 199.905 724.917 0 467 0C209.083 0 0 199.905 0 446.5C0 693.095 209.083 893 467 893Z" fill="#3A3D7C" fill-opacity="0.77"/>
<g clip-path="url(#clip0_0_1)">
<mask id="mask0_0_1" style="mask-type:luminance" maskUnits="userSpaceOnUse" x="226" y="224" width="482" height="446">
<path d="M708 224H226V670H708V224Z" fill="white"/>
</mask>
<g mask="url(#mask0_0_1)">
<path d="M658.565 469.746H653.865V417.954H662.496C664.816 417.954 667.105 417.459 669.183 416.506C671.262 415.553 673.075 414.168 674.48 412.46C675.886 410.753 676.846 408.767 677.286 406.66C677.726 404.552 677.634 402.379 677.016 400.309C664.364 357.752 636.963 320.215 599.023 293.462C561.083 266.71 514.701 252.221 467 252.221C419.299 252.221 372.917 266.71 334.977 293.462C297.037 320.215 269.636 357.752 256.983 400.309C256.366 402.379 256.274 404.552 256.714 406.66C257.154 408.767 258.114 410.753 259.52 412.46C260.925 414.168 262.738 415.553 264.817 416.506C266.895 417.459 269.184 417.954 271.504 417.954H280.135V469.746H275.435C262.995 469.757 251.068 474.335 242.271 482.474C233.474 490.614 228.527 501.65 228.515 513.161V518.736C228.55 528.136 231.884 537.27 238.015 544.763C244.147 552.257 252.744 557.704 262.511 560.284C260.375 565.154 259.27 570.359 259.258 575.615V600.577C259.27 611.524 263.974 622.02 272.338 629.762C280.702 637.503 292.043 641.859 303.873 641.874H635.775C647.606 641.859 658.947 637.503 667.311 629.762C675.675 622.02 680.378 611.524 680.39 600.577V575.615C680.379 569.847 679.044 564.146 676.474 558.89C685.051 555.607 692.383 550.046 697.547 542.909C702.71 535.773 705.472 527.38 705.485 518.792V513.217C705.489 501.697 700.548 490.646 691.75 482.494C682.952 474.343 671.016 469.757 658.565 469.746ZM467 280.098C504.649 280.188 541.405 290.713 572.527 310.316C603.649 329.92 627.71 357.702 641.605 390.079H292.395C306.29 357.702 330.351 329.92 361.473 310.316C392.595 290.713 429.351 280.188 467 280.098ZM623.74 417.954V433.676C621.22 435.126 618.841 436.777 616.631 438.61C615.121 440.255 613.242 441.576 611.125 442.483C609.008 443.389 606.703 443.859 604.37 443.859C602.037 443.859 599.732 443.389 597.615 442.483C595.498 441.576 593.619 440.255 592.109 438.61C589.233 435.86 585.788 433.674 581.981 432.181C578.173 430.688 574.08 429.919 569.945 429.919C565.809 429.919 561.716 430.688 557.908 432.181C554.101 433.674 550.656 435.86 547.78 438.61C546.276 440.251 544.403 441.57 542.292 442.475C540.181 443.38 537.883 443.848 535.557 443.848C533.231 443.848 530.932 443.38 528.822 442.475C526.711 441.57 524.838 440.251 523.334 438.61C520.46 435.859 517.017 433.671 513.211 432.178C509.404 430.684 505.312 429.914 501.177 429.914C497.042 429.914 492.949 430.684 489.143 432.178C485.336 433.671 481.894 435.859 479.02 438.61C477.521 440.253 475.653 441.573 473.546 442.479C471.438 443.385 469.143 443.854 466.819 443.854C464.496 443.854 462.2 443.385 460.093 442.479C457.986 441.573 456.117 440.253 454.619 438.61C451.751 435.859 448.314 433.671 444.512 432.176C440.71 430.682 436.622 429.912 432.492 429.912C428.361 429.912 424.273 430.682 420.471 432.176C416.67 433.671 413.232 435.859 410.365 438.61C408.869 440.252 407.003 441.572 404.899 442.478C402.794 443.384 400.501 443.853 398.179 443.853C395.858 443.853 393.565 443.384 391.46 442.478C389.355 441.572 387.49 440.252 385.994 438.61C383.125 435.858 379.686 433.67 375.884 432.176C372.081 430.681 367.991 429.911 363.859 429.911C359.728 429.911 355.638 430.681 351.835 432.176C348.033 433.67 344.594 435.858 341.725 438.61C340.226 440.253 338.358 441.573 336.251 442.479C334.144 443.385 331.848 443.854 329.525 443.854C327.201 443.854 324.905 443.385 322.798 442.479C320.691 441.573 318.823 440.253 317.324 438.61C315.133 436.789 312.769 435.157 310.26 433.732V417.954H623.74ZM310.26 451.307C315.599 455.581 322.451 457.887 329.509 457.788C333.643 457.777 337.732 457.003 341.537 455.509C345.342 454.016 348.786 451.833 351.666 449.091C353.164 447.448 355.031 446.128 357.137 445.222C359.243 444.317 361.537 443.847 363.859 443.847C366.182 443.847 368.476 444.317 370.582 445.222C372.688 446.128 374.555 447.448 376.053 449.091C378.919 451.843 382.356 454.033 386.158 455.528C389.96 457.024 394.048 457.795 398.179 457.795C402.311 457.795 406.399 457.024 410.201 455.528C414.003 454.033 417.44 451.843 420.306 449.091C421.804 447.45 423.67 446.132 425.774 445.228C427.879 444.324 430.171 443.855 432.492 443.855C434.812 443.855 437.105 444.324 439.209 445.228C441.314 446.132 443.18 447.45 444.677 449.091C447.546 451.842 450.985 454.03 454.788 455.525C458.591 457.019 462.68 457.79 466.812 457.79C470.943 457.79 475.033 457.019 478.836 455.525C482.639 454.03 486.077 451.842 488.946 449.091C490.451 447.449 492.323 446.13 494.434 445.226C496.545 444.321 498.843 443.852 501.169 443.852C503.495 443.852 505.794 444.321 507.904 445.226C510.015 446.13 511.888 447.449 513.392 449.091C516.265 451.841 519.706 454.028 523.512 455.522C527.317 457.016 531.408 457.786 535.542 457.786C539.675 457.786 543.767 457.016 547.572 455.522C551.377 454.028 554.819 451.841 557.691 449.091C559.2 447.448 561.077 446.129 563.191 445.224C565.306 444.319 567.607 443.851 569.937 443.851C572.267 443.851 574.569 444.319 576.683 445.224C578.797 446.129 580.674 447.448 582.183 449.091C585.055 451.851 588.501 454.045 592.315 455.54C596.128 457.035 600.229 457.799 604.37 457.788C611.482 457.922 618.392 455.591 623.74 451.251V469.746H619.011C615.941 469.745 612.944 470.613 610.422 472.232C607.899 473.851 605.972 476.145 604.897 478.805C602.893 483.785 599.301 488.084 594.596 491.131C589.89 494.178 584.295 495.829 578.553 495.865C572.015 495.831 565.7 493.665 560.719 489.746C559.134 488.591 557.316 487.738 555.372 487.238C554.776 487.105 554.173 487.008 553.564 486.945C552.759 486.753 551.938 486.622 551.109 486.555C550.164 486.557 549.222 486.636 548.292 486.792C544.266 487.439 540.122 486.881 536.463 485.199C532.803 483.517 529.818 480.799 527.943 477.44C526.69 475.125 524.764 473.18 522.383 471.821C520.002 470.462 517.259 469.744 514.462 469.746H310.26V451.307ZM258.64 513.161C258.644 509.041 260.415 505.09 263.564 502.177C266.713 499.263 270.982 497.625 275.435 497.621H506.162C510.968 503.312 517.175 507.857 524.266 510.876C531.356 513.894 539.124 515.299 546.922 514.973C556.301 520.716 567.306 523.766 578.553 523.74C588.58 523.698 598.427 521.274 607.152 516.7C615.876 512.127 623.186 505.558 628.38 497.621H658.505C662.958 497.625 667.227 499.263 670.376 502.177C673.525 505.09 675.295 509.041 675.299 513.161V518.736C675.295 522.858 673.525 526.81 670.377 529.726C667.228 532.642 662.959 534.283 658.505 534.291H275.435C270.981 534.283 266.711 532.642 263.563 529.726C260.415 526.81 258.644 522.858 258.64 518.736V513.161ZM650.265 600.48C650.261 604.036 648.734 607.446 646.018 609.961C643.302 612.477 639.618 613.894 635.775 613.902H303.873C300.03 613.894 296.347 612.477 293.63 609.961C290.914 607.446 289.387 604.036 289.383 600.48V575.518C289.387 571.963 290.915 568.555 293.631 566.041C296.348 563.528 300.031 562.114 303.873 562.11H635.775C639.617 562.114 643.3 563.528 646.017 566.041C648.733 568.555 650.261 571.963 650.265 575.518V600.48Z" fill="#93BEE6"/>
<path d="M532.477 328.531C534.657 328.531 536.789 327.933 538.602 326.812C540.415 325.691 541.829 324.097 542.663 322.233C543.498 320.369 543.716 318.318 543.291 316.339C542.865 314.36 541.815 312.542 540.273 311.115C538.731 309.688 536.767 308.716 534.628 308.323C532.489 307.929 530.272 308.131 528.257 308.903C526.243 309.675 524.521 310.983 523.309 312.661C522.098 314.339 521.451 316.311 521.451 318.329C521.455 321.034 522.618 323.626 524.685 325.539C526.752 327.451 529.554 328.528 532.477 328.531Z" fill="#93BEE6"/>
<path d="M466.985 308.155C473.074 308.155 478.01 303.587 478.01 297.952C478.01 292.318 473.074 287.75 466.985 287.75C460.895 287.75 455.959 292.318 455.959 297.952C455.959 303.587 460.895 308.155 466.985 308.155Z" fill="#93BEE6"/>
<path d="M590.467 371.793C596.557 371.793 601.493 367.226 601.493 361.591C601.493 355.956 596.557 351.389 590.467 351.389C584.378 351.389 579.441 355.956 579.441 361.591C579.441 367.226 584.378 371.793 590.467 371.793Z" fill="#93BEE6"/>
<path d="M404.4 328.531C406.581 328.531 408.713 327.933 410.526 326.812C412.339 325.691 413.752 324.097 414.587 322.233C415.421 320.369 415.64 318.318 415.214 316.339C414.789 314.36 413.739 312.542 412.197 311.115C410.655 309.688 408.69 308.716 406.551 308.323C404.412 307.929 402.196 308.131 400.181 308.903C398.166 309.675 396.444 310.983 395.233 312.661C394.021 314.339 393.375 316.311 393.375 318.329C393.378 321.034 394.541 323.626 396.608 325.539C398.675 327.451 401.477 328.528 404.4 328.531Z" fill="#93BEE6"/>
<path d="M469.892 324.88C467.712 324.88 465.581 325.478 463.768 326.598C461.955 327.719 460.542 329.311 459.707 331.175C458.872 333.038 458.653 335.089 459.077 337.067C459.501 339.046 460.55 340.864 462.09 342.291C463.631 343.718 465.594 344.691 467.732 345.086C469.87 345.482 472.086 345.282 474.101 344.511C476.116 343.741 477.839 342.436 479.052 340.76C480.266 339.084 480.915 337.113 480.918 335.096C480.918 332.389 479.757 329.792 477.689 327.877C475.622 325.961 472.818 324.883 469.892 324.88Z" fill="#93BEE6"/>
<path d="M404.4 371.793C410.49 371.793 415.426 367.226 415.426 361.591C415.426 355.956 410.49 351.389 404.4 351.389C398.311 351.389 393.375 355.956 393.375 361.591C393.375 367.226 398.311 371.793 404.4 371.793Z" fill="#93BEE6"/>
<path d="M532.477 371.793C538.566 371.793 543.502 367.226 543.502 361.591C543.502 355.956 538.566 351.389 532.477 351.389C526.387 351.389 521.451 355.956 521.451 361.591C521.451 367.226 526.387 371.793 532.477 371.793Z" fill="#93BEE6"/>
<path d="M346.394 371.793C352.484 371.793 357.42 367.226 357.42 361.591C357.42 355.956 352.484 351.389 346.394 351.389C340.305 351.389 335.369 355.956 335.369 361.591C335.369 367.226 340.305 371.793 346.394 371.793Z" fill="#93BEE6"/>
</g>
</g>
<defs>
<clipPath id="clip0_0_1">
<rect width="482" height="446" fill="white" transform="translate(226 224)"/>
</clipPath>
</defs>
</svg>
