<svg width="270" height="270" viewBox="0 0 270 270" fill="none" xmlns="http://www.w3.org/2000/svg">
<rect opacity="0.7" width="283" height="268" rx="19" fill="#581F34"/>
<path d="M174.368 157.75C175.116 154.632 176.879 152.6 178.833 152.6H190.571V72.3C190.571 68.2684 192.426 65 194.714 65H211.286C213.574 65 215.429 68.2684 215.429 72.3V152.6H227.167C229.122 152.6 230.884 154.632 231.632 157.75C232.38 160.868 231.966 164.456 230.584 166.842L206.418 208.557C204.53 211.815 201.47 211.815 199.582 208.557L175.416 166.842C174.033 164.456 173.62 160.868 174.368 157.75Z" fill="#FE3BB7"/>
<path d="M132.973 184.516V157H95.6193V184.516H71L114.295 229.063L157.593 184.516H132.973Z" fill="#FE3BB7"/>
<path fill-rule="evenodd" clip-rule="evenodd" d="M112 164C147.898 164 177 137.137 177 104C177 70.8629 147.898 44 112 44C76.1015 44 47 70.8629 47 104C47 137.137 76.1015 164 112 164ZM116.875 68C116.875 65.5147 114.692 63.5 112 63.5C109.308 63.5 107.125 65.5147 107.125 68V69.9004C96.5272 71.652 87.625 79.0017 87.625 89C87.625 100.503 99.4082 108.5 112 108.5C120.947 108.5 126.625 113.934 126.625 119C126.625 124.066 120.947 129.5 112 129.5C103.053 129.5 97.375 124.066 97.375 119C97.375 116.515 95.1924 114.5 92.5 114.5C89.8076 114.5 87.625 116.515 87.625 119C87.625 128.998 96.5272 136.348 107.125 138.1V140C107.125 142.485 109.308 144.5 112 144.5C114.692 144.5 116.875 142.485 116.875 140V138.1C127.473 136.348 136.375 128.998 136.375 119C136.375 107.497 124.592 99.5 112 99.5C103.053 99.5 97.375 94.0658 97.375 89C97.375 83.9344 103.053 78.5 112 78.5C120.947 78.5 126.625 83.9344 126.625 89C126.625 91.4853 128.808 93.5 131.5 93.5C134.192 93.5 136.375 91.4853 136.375 89C136.375 79.0017 127.473 71.652 116.875 69.9004V68Z" fill="#FE3BB7"/>
</svg>
